<?xml version="1.0" encoding="UTF-8" standalone="no"?><svg width="239.931" height="209.145" xmlns="http://www.w3.org/2000/svg"><style><![CDATA[@import url("https://fonts.googleapis.com/css?family=IM+Fell+Great+Primer");]]></style><rect x="0" y="0" width="239.931" height="209.145" id="background" fill="#000000"/><g id="map" transform="translate(145.724 82.808)"><g fill="none"><polyline points="26.149,70.7 41.535,80.937 66.483,91.471 71.888,100.174 74.672,104.572 76.636,107.564 78.381,110.118 79.907,112.235 81.415,114.235 82.903,116.12 84.373,117.889 85.824,119.543 87.081,121.71 88.144,124.389 89.012,127.58 89.687,131.285 90.154,136.221 90.415,142.39 90.431,151.949 90.086,171.373" stroke="#444444" stroke-width="2.338" stroke-linejoin="round" stroke-linecap="butt"/><polyline points="1.425,9.759 10.901,14.446 14.407,24.873 13.841,36.446 6.546,52.464 11.066,63.725 26.149,70.7 41.535,80.937 66.483,91.471 71.888,100.174 74.672,104.572 76.636,107.564 78.381,110.118 79.907,112.235 81.415,114.235 82.903,116.12 84.373,117.889 85.824,119.543 87.081,121.71 88.144,124.389 89.012,127.58 89.687,131.285 90.154,136.221 90.415,142.39 90.431,151.949 90.086,171.373" stroke="#000000" stroke-width="1.662" stroke-linejoin="round" stroke-linecap="round"/></g><g fill="none"><polyline points="-65.273,42.613 -81.977,52.474 -110.299,61.654 -113.562,72.26 -115.879,77.744 -118.337,81.64 -121.298,85.128 -124.762,88.206 -129.597,91.645 -135.801,95.444 -145.61,100.734 -165.733,110.906" stroke="#444444" stroke-width="2.338" stroke-linejoin="round" stroke-linecap="butt"/><polyline points="-5.841,9.634 -12.624,14.678 -21.664,13.417 -30.3,16.006 -45.83,27.994 -65.273,42.613 -81.977,52.474 -110.299,61.654 -113.562,72.26 -115.879,77.744 -118.337,81.64 -121.298,85.128 -124.762,88.206 -129.597,91.645 -135.801,95.444 -145.61,100.734 -165.733,110.906" stroke="#000000" stroke-width="1.662" stroke-linejoin="round" stroke-linecap="round"/></g><g fill="none"><polyline points="0.857,-38.353 -2.702,-59.908 -6.922,-74.807 -9.257,-82.594 -11.114,-88.234 -12.961,-93.383 -14.798,-98.041 -16.783,-102.76 -18.914,-107.54 -21.192,-112.38 -23.617,-117.282 -25.976,-122.112 -28.271,-126.871 -30.501,-131.559 -32.666,-136.176 -34.766,-140.721 -36.801,-145.195 -38.771,-149.598 -40.677,-153.929 -42.098,-158.225 -43.036,-162.483 -43.489,-166.705 -43.459,-170.891 -42.945,-175.041 -41.947,-179.154 -40.465,-183.23 -38.5,-187.271 -36.765,-191.079 -35.262,-194.655 -33.989,-197.999 -32.947,-201.111 -32.122,-204.264 -31.514,-207.459 -31.077,-211.513 -30.681,-218.884" stroke="#444444" stroke-width="2.338" stroke-linejoin="round" stroke-linecap="butt"/><polyline points="-2.284,-25.691 0.857,-38.353 3.564,-34.79 0.857,-38.353 -2.702,-59.908 -6.922,-74.807 -9.257,-82.594 -11.114,-88.234 -12.961,-93.383 -14.798,-98.041 -16.783,-102.76 -18.914,-107.54 -21.192,-112.38 -23.617,-117.282 -25.976,-122.112 -28.271,-126.871 -30.501,-131.559 -32.666,-136.176 -34.766,-140.721 -36.801,-145.195 -38.771,-149.598 -40.677,-153.929 -42.098,-158.225 -43.036,-162.483 -43.489,-166.705 -43.459,-170.891 -42.945,-175.041 -41.947,-179.154 -40.465,-183.23 -38.5,-187.271 -36.765,-191.079 -35.262,-194.655 -33.989,-197.999 -32.947,-201.111 -32.122,-204.264 -31.514,-207.459 -31.077,-211.513 -30.681,-218.884" stroke="#000000" stroke-width="1.662" stroke-linejoin="round" stroke-linecap="round"/></g><g fill="#0D0D0D" stroke="#9E9E9E" stroke-width="0.338"><polygon points="-3.167,-5.589 -3.679,-4.353 -4.915,-3.841 -6.151,-4.353 -6.663,-5.589 -6.151,-6.825 -4.915,-7.337 -3.679,-6.825"/></g><g fill="#0D0D0D" stroke="#9E9E9E" stroke-width="0.338"><g fill="#9E9E9E" stroke="#9E9E9E" stroke-width="0.338" stroke-linejoin="round"><polygon points="-14.554,8.698 -15.42,10.962 -15.761,11.855 -17.385,11.234 -20.015,10.228 -20.015,9.828 -17.385,10.834 -15.761,11.455 -15.42,10.562 -14.554,8.298"/><polygon points="-15.761,11.855 -16.261,13.161 -20.891,12.515 -20.891,12.115 -16.261,12.761 -15.761,11.455"/><polygon points="-12.892,13.631 -15.319,13.292 -15.319,12.892 -12.892,13.231"/><polygon points="-12.323,9.551 -12.892,13.631 -12.892,13.231 -12.323,9.151"/><polygon points="-12.407,5.126 -12.958,6.233 -14.245,8.816 -15.927,8.173 -15.927,7.773 -14.245,8.416 -12.958,5.833 -12.407,4.726"/><polygon points="-14.737,5.553 -17.781,4.388 -17.781,3.988 -14.737,5.153"/><polygon points="-10.289,0.873 -11.18,2.662 -12.407,5.126 -14.584,4.293 -17.341,3.238 -17.341,2.838 -14.584,3.893 -12.407,4.726 -11.18,2.262 -10.289,0.473"/><polygon points="-7.047,9.285 -9.076,10.794 -14.245,8.816 -14.245,8.416 -9.076,10.394 -7.047,8.885"/></g><polygon points="-20.015,9.828 -19.674,8.935 -18.808,6.671 -16.177,7.677 -14.554,8.298 -15.42,10.562 -15.761,11.455 -17.385,10.834"/><polygon points="-15.761,11.455 -16.261,12.761 -20.891,12.115 -20.015,9.828"/><polygon points="-12.892,13.231 -15.319,12.892 -14.75,8.813 -12.323,9.151"/><polygon points="-12.407,4.726 -12.958,5.833 -14.245,8.416 -15.927,7.773 -14.737,5.153 -17.781,3.988 -17.341,2.838 -14.227,4.029"/><polygon points="-17.341,2.838 -16.363,0.28 -15.652,-1.578 -12.655,-0.432 -10.289,0.473 -11.18,2.262 -12.407,4.726 -14.584,3.893"/><polygon points="-10.289,0.473 -7.047,8.885 -9.076,10.394 -14.245,8.416"/></g><g fill="#0D0D0D" stroke="#9E9E9E" stroke-width="0.338"><g fill="#9E9E9E" stroke="#9E9E9E" stroke-width="0.338" stroke-linejoin="round"><polygon points="2.342,8.913 1.88,4.496 1.412,0.026 0.932,-4.561 0.49,-8.791 0.193,-11.624 -0.33,-16.623 -0.803,-21.149 -1.187,-24.813 -1.187,-25.613 -0.803,-21.949 -0.33,-17.423 0.193,-12.424 0.49,-9.591 0.932,-5.361 1.412,-0.774 1.88,3.696 2.342,8.113"/><polygon points="7.069,-21.973 6.685,-25.637 6.685,-26.437 7.069,-22.773"/><polygon points="21.278,2.467 17.551,2.857 17.551,2.057 21.278,1.667"/><polygon points="18.013,7.273 14.577,7.633 10.214,8.089 9.752,3.673 5.736,4.093 5.736,3.293 9.752,2.873 10.214,7.289 14.577,6.833 18.013,6.473"/><polygon points="6.198,8.51 2.342,8.913 2.342,8.113 6.198,7.71"/></g><polygon points="2.342,8.113 1.88,3.696 1.412,-0.774 0.932,-5.361 0.49,-9.591 0.193,-12.424 -0.33,-17.423 -0.803,-21.949 -1.187,-25.613 2.669,-26.017 3.053,-22.353 7.069,-22.773 6.685,-26.437 11.048,-26.893 14.484,-27.253 14.868,-23.589 18.594,-23.979 19.068,-19.452 19.591,-14.454 19.887,-11.621 20.33,-7.391 20.81,-2.804 21.278,1.667 17.551,2.057 18.013,6.473 14.577,6.833 10.214,7.289 9.752,2.873 5.736,3.293 6.198,7.71"/></g><g fill="#0D0D0D" stroke="#9E9E9E" stroke-width="0.338"><g fill="#9E9E9E" stroke="#9E9E9E" stroke-width="0.338" stroke-linejoin="round"><polygon points="-3.084,-26.295 -3.214,-26.094 -3.495,-24.961 -3.495,-25.361 -3.214,-26.494 -3.084,-26.695"/><polygon points="-2.943,-26.234 -3.084,-26.295 -3.084,-26.695 -2.943,-26.634"/></g><polygon points="-3.084,-26.695 -3.214,-26.494 -3.495,-25.361 -2.943,-26.634"/></g><g fill="#0D0D0D" stroke="#9E9E9E" stroke-width="0.338"><g fill="#9E9E9E" stroke="#9E9E9E" stroke-width="0.338" stroke-linejoin="round"><polygon points="13.244,24.551 7.791,24.918 7.146,15.363 7.146,14.963 7.791,24.518 13.244,24.151"/><polygon points="7.791,24.918 5.639,25.063 2.885,25.249 2.686,22.308 -0.084,22.494 -0.188,20.95 -0.188,20.55 -0.084,22.094 2.686,21.908 2.885,24.849 5.639,24.663 7.791,24.518"/><polygon points="5.389,15.486 -0.528,15.898 -0.877,10.72 -0.877,10.32 -0.528,15.498 5.389,15.086"/><polygon points="0.115,25.436 -1.786,25.564 -2.224,22.77 -6.021,22.848 -8.888,22.907 -9.49,21.407 -10.88,17.946 -11.907,15.391 -11.907,14.991 -10.88,17.546 -9.49,21.007 -8.888,22.507 -6.021,22.448 -2.224,22.37 -1.786,25.164 0.115,25.036"/><polygon points="-0.518,16.057 -7.072,15.674 -11.907,15.391 -11.907,14.991 -7.072,15.274 -0.518,15.657"/></g><polygon points="7.146,14.963 10.085,14.759 13.244,24.151 7.791,24.518"/><polygon points="7.488,20.033 7.592,21.577 7.791,24.518 5.639,24.663 2.885,24.849 2.686,21.908 -0.084,22.094 -0.188,20.55 2.582,20.364 5.337,20.178"/><polygon points="5.389,15.086 -0.528,15.498 -0.877,10.32 5.204,12.344"/><polygon points="-0.518,15.657 -0.365,17.925 -0.158,20.996 -0.068,22.326 0.115,25.036 -1.786,25.164 -2.224,22.37 -6.021,22.448 -8.888,22.507 -9.49,21.007 -10.88,17.546 -11.907,14.991 -8.205,15.207 -3.302,15.494"/><polygon points="-11.907,14.991 -9.213,12.987 -5.517,10.24 -3.547,10.274 -0.877,10.32 -0.669,13.407 -0.518,15.657 -7.072,15.274"/></g><g fill="#1B1B1B" stroke="#A2A2A2" stroke-width="0.338"><g fill="#A2A2A2" stroke="#A2A2A2" stroke-width="0.338" stroke-linejoin="round"><polygon points="-21.696,12.383 -24.314,13.168 -24.792,11.155 -26.091,11.524 -28.61,12.239 -29.092,10.217 -31.138,10.766 -31.71,8.366 -31.71,7.966 -31.138,10.366 -29.092,9.817 -28.61,11.839 -26.091,11.124 -24.792,10.755 -24.314,12.768 -21.696,11.983"/><polygon points="-29.655,7.851 -30.043,6.223 -30.043,5.823 -29.655,7.451"/><polygon points="-27.549,5.628 -28.464,5.847 -30.308,6.286 -30.828,4.107 -31.331,1.998 -31.331,1.598 -30.828,3.707 -30.308,5.886 -28.464,5.447 -27.549,5.228"/><polygon points="-30.308,6.286 -32.104,6.715 -33.19,2.159 -33.19,1.759 -32.104,6.315 -30.308,5.886"/><polygon points="-23.909,3.047 -25.736,3.343 -25.736,2.943 -23.909,2.647"/><polygon points="-25.319,5.097 -27.549,5.628 -28.006,3.711 -28.474,1.75 -28.474,1.35 -28.006,3.311 -27.549,5.228 -25.319,4.697"/><polygon points="-21.595,5.516 -23.289,5.662 -24.302,1.388 -24.302,0.988 -23.289,5.262 -21.595,5.116"/><polygon points="-17.257,0.777 -18.162,3.145 -18.983,5.289 -19.947,5.373 -21.595,5.516 -21.774,3.458 -21.971,1.186 -21.971,0.786 -21.774,3.058 -21.595,5.116 -19.947,4.973 -18.983,4.889 -18.162,2.745 -17.257,0.377"/><polygon points="-19.449,6.508 -19.934,7.776 -20.287,8.698 -21.668,8.169 -22.797,7.737 -22.797,7.337 -21.668,7.769 -20.287,8.298 -19.934,7.376 -19.449,6.108"/></g><polygon points="-23.525,4.269 -23.156,5.822 -22.622,8.079 -22.164,10.009 -21.696,11.983 -24.314,12.768 -24.792,10.755 -26.091,11.124 -28.61,11.839 -29.092,9.817 -31.138,10.366 -31.71,7.966 -29.655,7.451 -30.043,5.823 -27.495,5.216 -26.182,4.903"/><polygon points="-31.331,1.598 -29.421,1.432 -28.474,1.35 -28.019,3.257 -27.549,5.228 -28.464,5.447 -30.308,5.886 -30.828,3.707"/><polygon points="-30.308,5.886 -32.104,6.315 -33.19,1.759 -31.331,1.598"/><polygon points="-28.474,1.35 -26.162,1.15 -24.302,0.988 -23.909,2.647 -25.736,2.943 -25.319,4.697 -27.549,5.228 -28.006,3.311"/><polygon points="-21.595,5.116 -23.289,5.262 -24.302,0.988 -21.971,0.786"/><polygon points="-21.971,0.786 -18.996,0.528 -17.257,0.377 -18.162,2.745 -18.983,4.889 -19.947,4.973 -21.595,5.116 -21.774,3.058"/><polygon points="-19.449,6.108 -19.934,7.376 -20.287,8.298 -21.668,7.769 -22.797,7.337 -22.445,6.415 -21.96,5.147 -20.83,5.579"/><g fill="#A2A2A2" stroke="#A2A2A2" stroke-width="0.338" stroke-linejoin="round"><polygon points="-15.658,-3.401 -16.41,-1.436 -16.939,-0.053 -18.117,0.049 -19.388,0.159 -19.503,-1.168 -19.666,-3.053 -19.666,-3.453 -19.503,-1.568 -19.388,-0.241 -18.117,-0.351 -16.939,-0.453 -16.41,-1.836 -15.658,-3.801"/><polygon points="-19.388,0.159 -20.88,0.289 -23.064,0.478 -23.064,0.078 -20.88,-0.111 -19.388,-0.241"/><polygon points="-21.106,-5.514 -21.206,-8.082 -21.206,-8.482 -21.106,-5.914"/><polygon points="-28.735,0.97 -30.936,1.161 -33.378,1.373 -33.378,0.973 -30.936,0.761 -28.735,0.57"/><polygon points="-25.824,0.717 -28.735,0.97 -28.784,-0.352 -28.784,-0.752 -28.735,0.57 -25.824,0.317"/><polygon points="-22.934,-3.743 -22.982,-2.178 -23.064,0.478 -24.363,0.591 -25.824,0.717 -25.925,-2.018 -25.985,-3.629 -25.985,-4.029 -25.925,-2.418 -25.824,0.317 -24.363,0.191 -23.064,0.078 -22.982,-2.578 -22.934,-4.143"/></g><polygon points="-15.658,-3.801 -16.41,-1.836 -16.939,-0.453 -18.117,-0.351 -19.388,-0.241 -19.503,-1.568 -19.666,-3.453 -17.587,-3.633"/><polygon points="-19.388,-0.241 -20.88,-0.111 -23.064,0.078 -23,-1.983 -22.938,-4.013 -22.885,-5.741 -21.106,-5.914 -21.206,-8.482 -20.112,-8.595 -19.89,-6.033 -19.741,-4.312 -19.566,-2.292"/><polygon points="-28.902,-3.92 -28.791,-0.93 -28.735,0.57 -30.936,0.761 -33.378,0.973 -33.124,-0.616 -32.619,-3.781 -30.664,-3.854"/><polygon points="-25.868,-0.861 -25.824,0.317 -28.735,0.57 -28.784,-0.752"/><polygon points="-25.985,-4.029 -24.371,-4.09 -22.934,-4.143 -22.982,-2.578 -23.064,0.078 -24.363,0.191 -25.824,0.317 -25.925,-2.418"/></g><g fill="#0D0D0D" stroke="#9E9E9E" stroke-width="0.338"><g fill="#9E9E9E" stroke="#9E9E9E" stroke-width="0.338" stroke-linejoin="round"><polygon points="-9.586,-19.421 -11.003,-21.329 -11.003,-21.729 -9.586,-19.821"/><polygon points="-7.867,-20.698 -9.586,-19.421 -9.586,-19.821 -7.867,-21.098"/><polygon points="-11.003,-21.329 -11.755,-22.341 -12.636,-23.527 -12.636,-23.927 -11.755,-22.741 -11.003,-21.729"/><polygon points="-7.687,-23.792 -8.922,-22.874 -11.003,-21.329 -11.003,-21.729 -8.922,-23.274 -7.687,-24.192"/><polygon points="-12.636,-23.527 -14.68,-26.278 -14.68,-26.678 -12.636,-23.927"/><polygon points="-8.807,-26.371 -12.636,-23.527 -12.636,-23.927 -8.807,-26.771"/><polygon points="-2.678,-25.872 -6.215,-20.401 -8.134,-24.82 -8.134,-25.22 -6.215,-20.801 -2.678,-26.272"/><polygon points="-4.72,-26.302 -6.302,-25.615 -8.134,-24.82 -8.824,-26.411 -9.705,-28.438 -9.705,-28.838 -8.824,-26.811 -8.134,-25.22 -6.302,-26.015 -4.72,-26.702"/><polygon points="-2.948,-27.072 -4.72,-26.302 -6.291,-29.921 -6.291,-30.321 -4.72,-26.702 -2.948,-27.472"/></g><polygon points="-9.586,-19.821 -11.003,-21.729 -9.284,-23.006 -7.867,-21.098"/><polygon points="-11.003,-21.729 -11.755,-22.741 -12.636,-23.927 -10.233,-25.712 -8.807,-26.771 -8.203,-25.379 -7.687,-24.192 -8.922,-23.274"/><polygon points="-12.636,-23.927 -14.68,-26.678 -9.705,-28.838 -8.807,-26.771"/><polygon points="-2.948,-27.472 -2.678,-26.272 -6.215,-20.801 -8.134,-25.22"/><polygon points="-4.72,-26.702 -6.302,-26.015 -8.134,-25.22 -8.824,-26.811 -9.705,-28.838 -7.873,-29.634 -6.291,-30.321 -5.411,-28.293"/><polygon points="-6.291,-30.321 -3.831,-31.389 -2.948,-27.472 -4.72,-26.702"/><g fill="#9E9E9E" stroke="#9E9E9E" stroke-width="0.338" stroke-linejoin="round"><polygon points="-11.773,-28.412 -13.535,-27.648 -15.17,-26.938 -15.879,-27.892 -17.174,-29.636 -17.174,-30.036 -15.879,-28.292 -15.17,-27.338 -13.535,-28.048 -11.773,-28.812"/><polygon points="-7.696,-30.183 -11.773,-28.412 -12.308,-30.749 -12.308,-31.149 -11.773,-28.812 -7.696,-30.583"/><polygon points="-4.01,-31.783 -7.696,-30.183 -8.048,-31.723 -8.048,-32.123 -7.696,-30.583 -4.01,-32.183"/></g><polygon points="-11.773,-28.812 -13.535,-28.048 -15.17,-27.338 -15.879,-28.292 -17.174,-30.036 -14.832,-30.572 -12.308,-31.149 -11.962,-29.639"/><polygon points="-7.696,-30.583 -11.773,-28.812 -12.308,-31.149 -8.048,-32.123"/><polygon points="-8.048,-32.123 -4.195,-33.005 -4.01,-32.183 -7.696,-30.583"/><g fill="#9E9E9E" stroke="#9E9E9E" stroke-width="0.338" stroke-linejoin="round"><polygon points="2.694,-34.18 -2.069,-26.813 -3.415,-32.783 -3.415,-33.183 -2.069,-27.213 2.694,-34.58"/></g><polygon points="-3.415,-33.183 2.694,-34.58 -2.069,-27.213"/><g fill="#9E9E9E" stroke="#9E9E9E" stroke-width="0.338" stroke-linejoin="round"><polygon points="-22.258,-15.298 -22.265,-18.114 -22.265,-18.514 -22.258,-15.698"/><polygon points="-20.534,-15.302 -22.258,-15.298 -22.258,-15.698 -20.534,-15.702"/><polygon points="-12.905,-22.547 -14.239,-21.28 -15.586,-20 -17.037,-18.623 -18.489,-18.62 -20.589,-18.615 -20.589,-19.015 -18.489,-19.02 -17.037,-19.023 -15.586,-20.4 -14.239,-21.68 -12.905,-22.947"/><polygon points="-20.129,-21.407 -22.274,-22.07 -22.281,-25.284 -22.289,-28.466 -22.289,-28.866 -22.281,-25.684 -22.274,-22.47 -20.129,-21.807"/><polygon points="-19.279,-26.568 -19.702,-24 -19.702,-24.4 -19.279,-26.968"/><polygon points="-17.837,-11.678 -21.614,-13.38 -21.614,-13.78 -17.837,-12.078"/><polygon points="-17.131,-13.245 -17.837,-11.678 -17.837,-12.078 -17.131,-13.645"/><polygon points="-11.17,-12.738 -12.129,-11.255 -13.205,-9.59 -15.173,-10.477 -17.837,-11.678 -17.837,-12.078 -15.173,-10.877 -13.205,-9.99 -12.129,-11.655 -11.17,-13.138"/><polygon points="-8.586,-16.734 -9.239,-15.724 -10.522,-13.74 -11.912,-15.204 -11.912,-15.604 -10.522,-14.14 -9.239,-16.124 -8.586,-17.134"/><polygon points="-10.428,-17.187 -11.77,-18.837 -13.481,-16.857 -14.769,-18.213 -16.049,-19.561 -16.049,-19.961 -14.769,-18.613 -13.481,-17.257 -11.77,-19.237 -10.428,-17.587"/></g><polygon points="-22.258,-15.698 -22.265,-18.514 -20.541,-18.518 -20.534,-15.702"/><polygon points="-12.905,-22.947 -14.239,-21.68 -15.586,-20.4 -17.037,-19.023 -18.489,-19.02 -20.589,-19.015 -20.129,-21.807 -22.274,-22.47 -22.281,-25.684 -22.289,-28.866 -19.279,-26.968 -19.702,-24.4 -16.473,-22.792 -15.511,-24.591"/><polygon points="-17.837,-12.078 -21.614,-13.78 -20.908,-15.347 -17.131,-13.645"/><polygon points="-11.17,-13.138 -12.129,-11.655 -13.205,-9.99 -15.173,-10.877 -17.837,-12.078 -15.258,-14.527 -12.96,-16.708 -11.93,-14.655"/><polygon points="-16.049,-19.961 -13.966,-21.939 -12.905,-22.947 -11.904,-21.601 -10.898,-20.246 -9.672,-18.596 -8.586,-17.134 -9.239,-16.124 -10.522,-14.14 -11.912,-15.604 -10.428,-17.587 -11.77,-19.237 -13.481,-17.257 -14.769,-18.613"/></g><g fill="#0D0D0D" stroke="#9E9E9E" stroke-width="0.338"><g fill="#9E9E9E" stroke="#9E9E9E" stroke-width="0.338" stroke-linejoin="round"><polygon points="5.651,-37.128 5.35,-35.34 5.049,-33.56 4.666,-31.289 2.842,-31.597 0.763,-31.948 0.763,-32.348 2.842,-31.997 4.666,-31.689 5.049,-33.96 5.35,-35.74 5.651,-37.528"/><polygon points="10.02,-36.391 9.703,-34.51 9.385,-32.625 9.004,-30.364 6.973,-30.707 6.587,-28.417 4.722,-28.732 4.722,-29.132 6.587,-28.817 6.973,-31.107 9.004,-30.764 9.385,-33.025 9.703,-34.91 10.02,-36.791"/><polygon points="15.907,-35.399 15.536,-33.202 15.023,-30.158 13.138,-30.476 12.747,-28.16 10.461,-28.546 8.904,-28.808 8.904,-29.208 10.461,-28.946 12.747,-28.56 13.138,-30.876 15.023,-30.558 15.536,-33.602 15.907,-35.799"/><polygon points="24.809,-33.897 24.377,-31.331 24.04,-29.339 23.704,-27.347 21.35,-27.744 19.285,-28.092 19.285,-28.492 21.35,-28.144 23.704,-27.747 24.04,-29.739 24.377,-31.731 24.809,-34.297"/><polygon points="29.276,-25.651 27.575,-25.503 25.003,-25.28 24.816,-27.43 24.674,-29.066 24.674,-29.466 24.816,-27.83 25.003,-25.68 27.575,-25.903 29.276,-26.051"/></g><polygon points="1.747,-38.187 3.827,-37.836 5.651,-37.528 5.35,-35.74 5.049,-33.96 4.666,-31.689 2.842,-31.997 0.763,-32.348 1.146,-34.618 1.446,-36.399"/><polygon points="6.124,-37.448 7.989,-37.134 10.02,-36.791 9.703,-34.91 9.385,-33.025 9.004,-30.764 6.973,-31.107 6.587,-28.817 4.722,-29.132 5.108,-31.421 5.489,-33.682 5.807,-35.567"/><polygon points="10.178,-36.765 11.735,-36.502 14.022,-36.117 15.907,-35.799 15.536,-33.602 15.023,-30.558 13.138,-30.876 12.747,-28.56 10.461,-28.946 8.904,-29.208 9.294,-31.524 9.808,-34.568"/><polygon points="20.39,-35.042 22.455,-34.694 24.809,-34.297 24.377,-31.731 24.04,-29.739 23.704,-27.747 21.35,-28.144 19.285,-28.492 19.621,-30.484 19.957,-32.477"/><polygon points="28.947,-29.837 29.089,-28.202 29.276,-26.051 27.575,-25.903 25.003,-25.68 24.816,-27.83 24.674,-29.466 27.246,-29.689"/></g><g fill="#0D0D0D" stroke="#9E9E9E" stroke-width="0.338"><g fill="#9E9E9E" stroke="#9E9E9E" stroke-width="0.338" stroke-linejoin="round"><polygon points="37.708,-5.119 36.862,-2.304 32.8,-3.524 32.8,-3.924 36.862,-2.704 37.708,-5.519"/><polygon points="36.839,-2.227 36.039,0.435 35.668,1.667 33.145,0.909 31.536,0.426 31.536,0.026 33.145,0.509 35.668,1.267 36.039,0.035 36.839,-2.627"/><polygon points="35.645,1.744 34.902,4.217 34.174,6.642 32.295,6.077 29.269,5.168 27.35,4.591 27.35,4.191 29.269,4.768 32.295,5.677 34.174,6.242 34.902,3.817 35.645,1.344"/><polygon points="27.023,7.224 24.927,6.99 23.496,6.831 23.496,6.431 24.927,6.59 27.023,6.824"/><polygon points="27.461,3.291 27.254,5.145 27.023,7.224 27.023,6.824 27.254,4.745 27.461,2.891"/><polygon points="22.361,2.737 22.301,1.431 22.207,-0.615 22.207,-1.015 22.301,1.031 22.361,2.337"/><polygon points="27.47,2.503 24.402,2.644 22.361,2.737 22.361,2.337 24.402,2.244 27.47,2.103"/><polygon points="22.203,-0.695 22.078,-3.432 22.078,-3.832 22.203,-1.095"/><polygon points="25.823,-0.861 22.203,-0.695 22.203,-1.095 25.823,-1.261"/></g><polygon points="37.708,-5.519 36.862,-2.704 32.8,-3.924 33.646,-6.74"/><polygon points="36.839,-2.627 36.039,0.035 35.668,1.267 33.145,0.509 31.536,0.026 31.907,-1.207 33.515,-0.723 34.315,-3.385"/><polygon points="35.645,1.344 34.902,3.817 34.174,6.242 32.295,5.677 29.269,4.768 27.35,4.191 28.079,1.766 29.998,2.343 30.741,-0.13 33.766,0.779"/><polygon points="27.023,6.824 24.927,6.59 23.496,6.431 23.728,4.352 23.935,2.498 25.366,2.658 27.461,2.891 27.254,4.745"/><polygon points="22.361,2.337 22.301,1.031 22.207,-1.015 24.248,-1.109 27.316,-1.249 27.41,0.796 27.47,2.103 24.402,2.244"/><polygon points="22.203,-1.095 22.078,-3.832 25.698,-3.998 25.823,-1.261"/><g fill="#9E9E9E" stroke="#9E9E9E" stroke-width="0.338" stroke-linejoin="round"><polygon points="21.92,-6.857 21.844,-8.52 21.77,-10.13 21.77,-10.53 21.844,-8.92 21.92,-7.257"/><polygon points="26.005,-7.044 23.497,-6.929 21.92,-6.857 21.92,-7.257 23.497,-7.329 26.005,-7.444"/><polygon points="21.767,-10.21 21.628,-13.226 21.533,-15.296 21.533,-15.696 21.628,-13.626 21.767,-10.61"/><polygon points="27.06,-10.453 24.188,-10.321 21.767,-10.21 21.767,-10.61 24.188,-10.721 27.06,-10.853"/><polygon points="21.53,-15.376 21.43,-17.542 21.312,-20.119 21.312,-20.519 21.43,-17.942 21.53,-15.776"/><polygon points="29.876,-15.759 27.37,-15.644 24.601,-15.517 21.53,-15.376 21.53,-15.776 24.601,-15.917 27.37,-16.044 29.876,-16.159"/><polygon points="25.573,-23.724 23.879,-21.083 21.861,-22.378 21.861,-22.778 23.879,-21.483 25.573,-24.124"/></g><polygon points="21.92,-7.257 21.844,-8.92 21.77,-10.53 23.347,-10.602 25.855,-10.717 25.929,-9.107 26.005,-7.444 23.497,-7.329"/><polygon points="21.767,-10.61 21.628,-13.626 21.533,-15.696 23.954,-15.807 26.827,-15.939 26.922,-13.869 27.06,-10.853 24.188,-10.721"/><polygon points="21.53,-15.776 21.43,-17.942 21.312,-20.519 24.384,-20.66 27.153,-20.787 27.271,-18.209 29.777,-18.324 29.876,-16.159 27.37,-16.044 24.601,-15.917"/><polygon points="23.555,-25.418 25.573,-24.124 23.879,-21.483 21.861,-22.778"/></g><g fill="#0D0D0D" stroke="#9E9E9E" stroke-width="0.338"><g fill="#9E9E9E" stroke="#9E9E9E" stroke-width="0.338" stroke-linejoin="round"><polygon points="22.742,26.181 22.504,23.757 22.305,21.724 22.305,21.324 22.504,23.357 22.742,25.781"/><polygon points="27.408,23.997 27.29,26.404 24.655,26.275 22.742,26.181 22.742,25.781 24.655,25.875 27.29,26.004 27.408,23.597"/><polygon points="22.982,28.632 22.742,26.181 22.742,25.781 22.982,28.232"/><polygon points="27.29,26.404 27.17,28.837 22.982,28.632 22.982,28.232 27.17,28.437 27.29,26.004"/><polygon points="27.17,28.837 27.044,31.404 23.236,31.217 22.982,28.632 22.982,28.232 23.236,30.817 27.044,31.004 27.17,28.437"/><polygon points="32.636,29.714 31.568,31.626 30.039,30.772 30.039,30.372 31.568,31.226 32.636,29.314"/><polygon points="31.568,31.626 30.564,33.423 29.349,35.6 27.603,35.65 25.506,35.71 23.681,35.763 23.437,33.273 23.236,31.217 23.236,30.817 23.437,32.873 23.681,35.363 25.506,35.31 27.603,35.25 29.349,35.2 30.564,33.023 31.568,31.226"/><polygon points="39.073,18.189 38.33,19.519 36.567,18.534 36.567,18.134 38.33,19.119 39.073,17.789"/><polygon points="36.521,17.232 36.452,15.269 36.452,14.869 36.521,16.832"/><polygon points="40.389,15.832 39.669,17.121 36.521,17.232 36.521,16.832 39.669,16.721 40.389,15.432"/><polygon points="32.169,14.657 30.666,14.443 28.151,14.083 28.151,13.683 30.666,14.043 32.169,14.257"/><polygon points="33.875,8.802 33.383,10.489 32.557,13.325 32.169,14.657 32.169,14.257 32.557,12.925 33.383,10.089 33.875,8.402"/><polygon points="24.315,7.737 24.202,10.406 24.202,10.006 24.315,7.337"/><polygon points="28.313,10.767 28.22,12.658 28.107,14.964 26.589,14.889 26.589,14.489 28.107,14.564 28.22,12.258 28.313,10.367"/><polygon points="26.698,12.55 24.119,12.369 24.017,14.763 22.588,14.693 22.588,14.293 24.017,14.363 24.119,11.969 26.698,12.15"/><polygon points="28.107,14.964 28.01,16.942 22.508,16.672 22.508,16.272 28.01,16.542 28.107,14.564"/><polygon points="25.379,21.875 23.599,21.787 22.305,21.724 22.305,21.324 23.599,21.387 25.379,21.475"/><polygon points="25.627,16.825 25.539,18.618 25.379,21.875 25.379,21.475 25.539,18.218 25.627,16.425"/></g><polygon points="22.742,25.781 22.504,23.357 22.305,21.324 24.493,21.431 24.567,23.458 27.408,23.597 27.29,26.004 24.655,25.875"/><polygon points="22.982,28.232 22.742,25.781 27.29,26.004 27.17,28.437"/><polygon points="27.17,28.437 27.044,31.004 23.236,30.817 22.982,28.232"/><polygon points="32.636,29.314 31.568,31.226 30.039,30.372 31.107,28.46"/><polygon points="31.568,31.226 30.564,33.023 29.349,35.2 27.603,35.25 25.506,35.31 23.681,35.363 23.437,32.873 23.236,30.817 25.919,30.949 29.002,31.1"/><polygon points="39.073,17.789 38.33,19.119 36.567,18.134 37.309,16.804"/><polygon points="36.521,16.832 36.452,14.869 40.389,15.432 39.669,16.721"/><polygon points="32.169,14.257 30.666,14.043 28.151,13.683 28.216,12.343 28.356,9.492 28.439,7.797 31.841,8.176 33.875,8.402 33.383,10.089 32.557,12.925"/><polygon points="22.588,14.293 22.685,11.868 22.765,9.88 22.874,7.176 24.315,7.337 24.202,10.006 26.787,10.233 28.313,10.367 28.22,12.258 28.107,14.564 26.589,14.489 26.698,12.15 24.119,11.969 24.017,14.363"/><polygon points="22.508,16.272 22.588,14.293 28.107,14.564 28.01,16.542"/><polygon points="25.379,21.475 23.599,21.387 22.305,21.324 22.436,18.066 23.742,18.13 23.821,16.337 25.627,16.425 25.539,18.218"/><g fill="#9E9E9E" stroke="#9E9E9E" stroke-width="0.338" stroke-linejoin="round"><polygon points="21.82,13.881 21.73,16.1 21.627,18.681 20.292,18.655 20.171,21.67 18.512,21.575 18.512,21.175 20.171,21.27 20.292,18.255 21.627,18.281 21.73,15.7 21.82,13.481"/><polygon points="14.595,17.354 12.955,17.419 11.897,14.273 11.897,13.873 12.955,17.019 14.595,16.954"/><polygon points="14.271,21.331 13.767,19.832 13.38,18.681 13.38,18.281 13.767,19.432 14.271,20.931"/><polygon points="18.076,18.383 16.765,18.824 16.765,18.424 18.076,17.983"/><polygon points="17.269,20.323 14.271,21.331 14.271,20.931 17.269,19.923"/><polygon points="17.265,25.155 17.093,23.395 16.905,21.482 16.905,21.082 17.093,22.995 17.265,24.755"/><polygon points="21.794,24.711 19.209,24.964 17.265,25.155 17.265,24.755 19.209,24.564 21.794,24.311"/><polygon points="21.933,26.13 17.404,26.574 17.265,25.155 17.265,24.755 17.404,26.174 21.933,25.73"/><polygon points="17.404,26.574 15.315,26.778 14.271,21.331 14.271,20.931 15.315,26.378 17.404,26.174"/><polygon points="22.169,28.531 15.216,28.805 15.216,28.405 22.169,28.131"/><polygon points="22.88,35.786 20.547,35.853 18.453,35.913 18.38,33.376 18.333,31.731 18.333,31.331 18.38,32.976 18.453,35.513 20.547,35.453 22.88,35.386"/><polygon points="18.333,31.731 18.299,30.563 18.245,28.686 18.245,28.286 18.299,30.163 18.333,31.331"/><polygon points="22.471,31.612 20.951,31.655 18.333,31.731 18.333,31.331 20.951,31.255 22.471,31.212"/><polygon points="18.453,35.913 16.369,35.973 14.863,36.016 14.863,35.616 16.369,35.573 18.453,35.513"/><polygon points="18.282,29.977 16.285,30.049 16.221,33.145 15.002,33.18 15.002,32.78 16.221,32.745 16.285,29.649 18.282,29.577"/><polygon points="21.82,13.881 20.505,13.933 19.101,13.989 18.073,12.415 18.073,12.015 19.101,13.589 20.505,13.533 21.82,13.481"/><polygon points="19.657,11.804 18.835,9.738 18.835,9.338 19.657,11.404"/></g><polygon points="18.816,13.6 20.482,13.534 21.82,13.481 21.73,15.7 21.627,18.281 20.292,18.255 20.171,21.27 18.512,21.175 18.63,18.222 18.73,15.737"/><polygon points="14.595,16.954 12.955,17.019 11.897,13.873 14.47,13.771"/><polygon points="14.271,20.931 13.767,19.432 13.38,18.281 16.378,17.273 17.689,16.832 18.076,17.983 16.765,18.424 17.269,19.923"/><polygon points="17.265,24.755 17.093,22.995 16.905,21.082 18.879,21.196 21.504,21.347 21.655,22.891 21.794,24.311 19.209,24.564"/><polygon points="21.794,24.311 21.933,25.73 17.404,26.174 17.265,24.755"/><polygon points="17.404,26.174 15.315,26.378 14.271,20.931 16.905,21.082"/><polygon points="21.933,25.73 22.169,28.131 15.216,28.405 15.315,26.378"/><polygon points="22.471,31.212 22.632,32.854 22.88,35.386 20.547,35.453 18.453,35.513 18.38,32.976 18.333,31.331 20.29,31.274"/><polygon points="18.333,31.331 18.299,30.163 18.245,28.286 20.728,28.188 22.169,28.131 22.355,30.03 22.471,31.212 20.951,31.255"/><polygon points="18.371,32.683 18.413,34.146 18.453,35.513 16.369,35.573 14.863,35.616 14.93,34.246 15.002,32.78 16.416,32.739"/><polygon points="15.002,32.78 15.153,29.69 15.216,28.405 16.312,28.362 18.245,28.286 18.282,29.577 16.285,29.649 16.221,32.745"/><polygon points="21.82,13.481 20.505,13.533 19.101,13.589 18.073,12.015 19.657,11.404 18.835,9.338 20.482,8.262 21.141,10.832"/></g><g fill="#1B1B1B" stroke="#A2A2A2" stroke-width="0.338"><g fill="#A2A2A2" stroke="#A2A2A2" stroke-width="0.338" stroke-linejoin="round"><polygon points="-19.787,41.82 -21.097,43.728 -22.574,45.88 -23.847,47.735 -25.655,46.066 -27.111,44.723 -29.016,42.965 -29.016,42.565 -27.111,44.323 -25.655,45.666 -23.847,47.335 -22.574,45.48 -21.097,43.328 -19.787,41.42"/><polygon points="-27.621,41.224 -29.174,39.791 -29.174,39.391 -27.621,40.824"/><polygon points="-27.512,37.813 -28.632,36.781 -30.505,35.054 -30.505,34.654 -28.632,36.381 -27.512,37.413"/><polygon points="-12.493,38.289 -13.147,40.169 -13.58,41.414 -14.27,43.396 -17.142,43.79 -18.453,46.274 -23.847,47.735 -23.847,47.335 -18.453,45.874 -17.142,43.39 -14.27,42.996 -13.58,41.014 -13.147,39.769 -12.493,37.889"/><polygon points="-9.753,30.415 -10.427,32.352 -11.003,34.009 -11.748,36.15 -13.217,35.639 -15.141,34.97 -16.672,34.437 -16.672,34.037 -15.141,34.57 -13.217,35.239 -11.748,35.75 -11.003,33.609 -10.427,31.952 -9.753,30.015"/><polygon points="-13.145,29.235 -13.819,31.171 -13.819,30.771 -13.145,28.835"/><polygon points="-8.352,26.389 -9.129,28.623 -10.73,26.447 -11.832,28.498 -13.535,26.929 -13.535,26.529 -11.832,28.098 -10.73,26.047 -9.129,28.223 -8.352,25.989"/><polygon points="-12.041,24.665 -13.183,23.112 -15.02,25.56 -16.933,23.796 -18.661,22.204 -18.661,21.804 -16.933,23.396 -15.02,25.16 -13.183,22.712 -12.041,24.265"/><polygon points="-26.92,20.943 -28.646,22.813 -30.257,24.559 -31.689,23.237 -33.077,21.956 -34.578,20.572 -34.578,20.172 -33.077,21.556 -31.689,22.837 -30.257,24.159 -28.646,22.413 -26.92,20.543"/><polygon points="-25.156,19.031 -26.92,20.943 -29.835,16.911 -29.835,16.511 -26.92,20.543 -25.156,18.631"/><polygon points="-29.804,34.293 -30.912,35.495 -32.496,37.213 -33.761,38.586 -35.743,36.758 -37.2,35.413 -39.04,33.715 -39.04,33.315 -37.2,35.013 -35.743,36.358 -33.761,38.186 -32.496,36.813 -30.912,35.095 -29.804,33.893"/><polygon points="-39.04,33.715 -41.074,31.839 -42.52,30.504 -44.764,28.434 -44.764,28.034 -42.52,30.104 -41.074,31.439 -39.04,33.315"/><polygon points="-34.821,23.716 -36.127,24.868 -36.127,24.468 -34.821,23.316"/><polygon points="-30.437,24.392 -32.116,26.212 -33.291,27.485 -34.779,29.098 -35.97,30.388 -37.54,32.09 -39.04,33.715 -39.04,33.315 -37.54,31.69 -35.97,29.988 -34.779,28.698 -33.291,27.085 -32.116,25.812 -30.437,23.992"/><polygon points="-20.245,18.909 -22.231,19.504 -24.052,20.05 -24.649,18.059 -25.392,15.579 -25.392,15.179 -24.649,17.659 -24.052,19.65 -22.231,19.104 -20.245,18.509"/></g><polygon points="-19.787,41.42 -21.097,43.328 -22.574,45.48 -23.847,47.335 -25.655,45.666 -27.111,44.323 -29.016,42.565 -27.621,40.824 -29.174,39.391 -27.512,37.413 -28.632,36.381 -30.505,34.654 -28.954,32.971 -27.129,34.654 -26.038,35.659 -24.567,37.015 -22.805,38.638 -21.459,39.88"/><polygon points="-15.476,35.139 -13.669,36.804 -12.493,37.889 -13.147,39.769 -13.58,41.014 -14.27,42.996 -17.142,43.39 -18.453,45.874 -23.847,47.335 -21.554,43.994 -19.196,40.558 -17.714,38.399"/><polygon points="-9.753,30.015 -10.427,31.952 -11.003,33.609 -11.748,35.75 -13.217,35.239 -15.141,34.57 -16.672,34.037 -15.926,31.895 -15.35,30.239 -14.676,28.302 -13.145,28.835 -13.819,30.771 -11.895,31.441 -11.221,29.504"/><polygon points="-18.661,21.804 -15.986,18.902 -12.651,15.284 -11.817,17.36 -10.894,19.659 -10.177,21.443 -9.355,23.489 -8.352,25.989 -9.129,28.223 -10.73,26.047 -11.832,28.098 -13.535,26.529 -12.041,24.265 -13.183,22.712 -15.02,25.16 -16.933,23.396"/><polygon points="-26.92,20.543 -28.646,22.413 -30.257,24.159 -31.689,22.837 -33.077,21.556 -34.578,20.172 -32.289,18.405 -31.024,19.797 -28.823,17.911 -27.886,19.206"/><polygon points="-29.835,16.511 -28.038,15.972 -25.156,18.631 -26.92,20.543"/><polygon points="-29.804,33.893 -30.912,35.095 -32.496,36.813 -33.761,38.186 -35.743,36.358 -37.2,35.013 -39.04,33.315 -37.774,31.943 -36.189,30.226 -35.08,29.024 -33.241,30.721 -31.785,32.065"/><polygon points="-39.04,33.315 -41.074,31.439 -42.52,30.104 -44.764,28.034 -42.988,26.663 -41.129,25.228 -39.719,24.14 -37.957,22.78 -36.565,21.706 -34.821,23.316 -36.127,24.468 -34.949,25.555 -33.697,24.353 -31.908,22.635 -30.437,23.992 -32.116,25.812 -33.291,27.085 -34.779,28.698 -35.97,29.988 -37.54,31.69"/><polygon points="-25.392,15.179 -23.572,14.633 -21.586,14.038 -20.842,16.518 -20.245,18.509 -22.231,19.104 -24.052,19.65 -24.649,17.659"/></g><g fill="#363636" stroke="#AAAAAA" stroke-width="0.338"><g fill="#AAAAAA" stroke="#AAAAAA" stroke-width="0.338" stroke-linejoin="round"><polygon points="10.235,41.95 8.42,45.936 6.962,49.138 5.755,51.789 3.235,50.979 0.494,50.097 0.494,49.697 3.235,50.579 5.755,51.389 6.962,48.738 8.42,45.536 10.235,41.55"/><polygon points="12.391,37.216 10.235,41.95 7.863,40.87 7.863,40.47 10.235,41.55 12.391,36.816"/><polygon points="7.763,41.618 4.504,41.18 1.743,40.808 1.743,40.408 4.504,40.78 7.763,41.218"/><polygon points="8.505,36.099 8.136,38.841 7.763,41.618 7.763,41.218 8.136,38.441 8.505,35.699"/><polygon points="9.5,31.102 9.311,33.458 9.311,33.058 9.5,30.702"/><polygon points="12.98,33.571 12.851,36.205 9.099,36.113 5.856,36.034 2.396,35.948 2.396,35.548 5.856,35.634 9.099,35.713 12.851,35.805 12.98,33.171"/></g><polygon points="10.235,41.55 8.42,45.536 6.962,48.738 5.755,51.389 3.235,50.579 0.494,49.697 0.83,47.194 1.237,44.171 1.743,40.408 6.167,41.003"/><polygon points="12.391,36.816 10.235,41.55 7.863,40.47 10.019,35.736"/><polygon points="7.763,41.218 4.504,40.78 1.743,40.408 2.071,37.963 2.396,35.548 5.198,35.617 8.505,35.699 8.136,38.441"/><polygon points="2.396,35.548 2.758,32.856 3.079,30.467 6.393,30.589 9.5,30.702 9.311,33.058 12.98,33.171 12.851,35.805 9.099,35.713 5.856,35.634"/><g fill="#AAAAAA" stroke="#AAAAAA" stroke-width="0.338" stroke-linejoin="round"><polygon points="1.475,36.797 0.846,41.476 -2.047,41.088 -2.047,40.688 0.846,41.076 1.475,36.397"/><polygon points="2.276,30.838 1.827,34.178 -0.161,33.997 -0.502,36.531 -2.957,36.201 -2.957,35.801 -0.502,36.131 -0.161,33.597 1.827,33.778 2.276,30.438"/><polygon points="-2.957,36.201 -6.249,35.758 -6.249,35.358 -2.957,35.801"/><polygon points="-2.214,30.674 -2.957,36.201 -2.957,35.801 -2.214,30.274"/><polygon points="-6.879,40.438 -8.968,40.157 -12.147,39.729 -12.147,39.329 -8.968,39.757 -6.879,40.038"/><polygon points="-5.549,30.552 -5.881,33.022 -6.509,37.689 -6.879,40.438 -6.879,40.038 -6.509,37.289 -5.881,32.622 -5.549,30.152"/><polygon points="0.846,41.476 0.394,44.832 0.183,46.402 -2.117,45.826 -5.163,45.062 -5.922,48.034 -8.413,47.233 -8.413,46.833 -5.922,47.634 -5.163,44.662 -2.117,45.426 0.183,46.002 0.394,44.432 0.846,41.076"/><polygon points="-6.254,40.522 -7.153,43.315 -12.766,41.509 -12.766,41.109 -7.153,42.915 -6.254,40.122"/><polygon points="-7.153,43.315 -8.036,46.062 -8.413,47.233 -11.018,46.395 -14.119,45.398 -14.119,44.998 -11.018,45.995 -8.413,46.833 -8.036,45.662 -7.153,42.915"/></g><polygon points="-1.417,36.008 1.475,36.397 0.846,41.076 -2.047,40.688"/><polygon points="-2.214,30.274 0.274,30.365 2.276,30.438 1.827,33.778 -0.161,33.597 -0.502,36.131 -2.957,35.801 -2.631,33.371"/><polygon points="-2.957,35.801 -6.249,35.358 -5.549,30.152 -2.214,30.274"/><polygon points="-6.879,40.038 -8.968,39.757 -12.147,39.329 -11.247,36.744 -9.719,32.353 -8.91,30.029 -6.882,30.103 -5.549,30.152 -5.881,32.622 -6.509,37.289"/><polygon points="-6.254,40.122 -4.08,40.414 -1.273,40.792 0.846,41.076 0.394,44.432 0.183,46.002 -2.117,45.426 -5.163,44.662 -5.922,47.634 -8.413,46.833 -7.524,44.07 -7.119,42.811"/><polygon points="-12.766,41.109 -12.147,39.329 -6.254,40.122 -7.153,42.915"/><polygon points="-7.153,42.915 -8.036,45.662 -8.413,46.833 -11.018,45.995 -14.119,44.998 -13.715,43.836 -12.766,41.109 -9.715,42.091"/><g fill="#AAAAAA" stroke="#AAAAAA" stroke-width="0.338" stroke-linejoin="round"><polygon points="13.383,25.343 13.258,27.891 13.134,30.435 10.318,30.332 6.395,30.188 4.416,30.116 4.416,29.716 6.395,29.788 10.318,29.932 13.134,30.035 13.258,27.491 13.383,24.943"/><polygon points="4.416,30.116 1.697,30.016 1.697,29.616 4.416,29.716"/><polygon points="4.569,25.937 4.416,30.116 4.416,29.716 4.569,25.537"/><polygon points="1.839,26.121 1.779,27.766 -1.14,27.835 -1.216,29.91 -3.265,29.835 -3.265,29.435 -1.216,29.51 -1.14,27.435 1.779,27.366 1.839,25.721"/><polygon points="-3.265,29.835 -8.635,29.638 -8.635,29.238 -3.265,29.435"/><polygon points="-3.142,26.457 -3.265,29.835 -3.265,29.435 -3.142,26.057"/></g><polygon points="4.569,25.537 6.57,25.402 10.536,25.135 13.383,24.943 13.258,27.491 13.134,30.035 10.318,29.932 6.395,29.788 4.416,29.716 4.493,27.628"/><polygon points="4.416,29.716 1.697,29.616 1.839,25.721 4.569,25.537"/><polygon points="-3.142,26.057 -1.085,25.918 1.839,25.721 1.779,27.366 -1.14,27.435 -1.216,29.51 -3.265,29.435 -3.194,27.483"/><polygon points="-3.265,29.435 -8.635,29.238 -7.634,26.36 -3.142,26.057"/></g><g fill="#282828" stroke="#A6A6A6" stroke-width="0.338"><g fill="#A6A6A6" stroke="#A6A6A6" stroke-width="0.338" stroke-linejoin="round"><polygon points="-51.716,-13.136 -52.109,-16.699 -52.109,-17.099 -51.716,-13.536"/><polygon points="-45.933,-13.773 -51.716,-13.136 -51.716,-13.536 -45.933,-14.173"/><polygon points="-52.118,-16.779 -52.385,-19.199 -52.661,-21.708 -52.661,-22.108 -52.385,-19.599 -52.118,-17.179"/><polygon points="-47.032,-19.789 -49.267,-19.543 -49.267,-19.943 -47.032,-20.189"/><polygon points="-49.001,-17.122 -52.118,-16.779 -52.118,-17.179 -49.001,-17.522"/></g><polygon points="-51.716,-13.536 -52.109,-17.099 -46.326,-17.737 -45.933,-14.173"/><polygon points="-52.118,-17.179 -52.385,-19.599 -52.661,-22.108 -49.544,-22.451 -47.309,-22.698 -47.032,-20.189 -49.267,-19.943 -49.001,-17.522"/><g fill="#A6A6A6" stroke="#A6A6A6" stroke-width="0.338" stroke-linejoin="round"><polygon points="-36.595,-16.335 -38.174,-14.488 -40.039,-12.305 -42.138,-14.098 -42.138,-14.498 -40.039,-12.705 -38.174,-14.888 -36.595,-16.735"/><polygon points="-40.273,-16.282 -41.615,-17.428 -41.615,-17.828 -40.273,-16.682"/><polygon points="-31.807,-12.244 -35.275,-8.185 -38.117,-10.614 -38.117,-11.014 -35.275,-8.585 -31.807,-12.644"/></g><polygon points="-40.036,-19.675 -38.695,-18.529 -36.595,-16.735 -38.174,-14.888 -40.039,-12.705 -42.138,-14.498 -40.273,-16.682 -41.615,-17.828"/><polygon points="-34.649,-15.073 -31.807,-12.644 -35.275,-8.585 -38.117,-11.014"/><g fill="#A6A6A6" stroke="#A6A6A6" stroke-width="0.338" stroke-linejoin="round"><polygon points="-28.998,-10.922 -30.685,-12.364 -33.145,-14.466 -33.145,-14.866 -30.685,-12.764 -28.998,-11.322"/><polygon points="-25.648,-18.259 -27.442,-16.16 -27.442,-16.56 -25.648,-18.659"/><polygon points="-25.755,-14.718 -27.905,-12.202 -28.998,-10.922 -28.998,-11.322 -27.905,-12.602 -25.755,-15.118"/><polygon points="-33.206,-14.518 -35.333,-16.336 -36.769,-17.562 -39.113,-19.565 -39.113,-19.965 -36.769,-17.962 -35.333,-16.736 -33.206,-14.918"/><polygon points="-24.671,-24.507 -27.088,-21.678 -29.153,-19.262 -31.28,-21.08 -33.039,-19.021 -33.039,-19.421 -31.28,-21.48 -29.153,-19.662 -27.088,-22.078 -24.671,-24.907"/><polygon points="-30.911,-17.204 -33.206,-14.518 -33.206,-14.918 -30.911,-17.604"/><polygon points="-30.685,-34.341 -32.438,-32.511 -32.438,-32.911 -30.685,-34.741"/><polygon points="-30.56,-30.712 -32.546,-28.637 -34.425,-30.436 -36.729,-32.642 -36.729,-33.042 -34.425,-30.836 -32.546,-29.037 -30.56,-31.112"/></g><polygon points="-28.998,-11.322 -30.685,-12.764 -33.145,-14.866 -32.052,-16.145 -29.902,-18.661 -28.108,-20.761 -25.648,-18.659 -27.442,-16.56 -25.755,-15.118 -27.905,-12.602"/><polygon points="-33.206,-14.918 -35.333,-16.736 -36.769,-17.962 -39.113,-19.965 -36.818,-22.651 -35.06,-24.709 -32.995,-27.125 -30.652,-25.122 -29.216,-23.896 -26.799,-26.725 -24.671,-24.907 -27.088,-22.078 -29.153,-19.662 -31.28,-21.48 -33.039,-19.421 -30.911,-17.604"/><polygon points="-36.729,-33.042 -34.742,-35.117 -32.99,-36.947 -30.685,-34.741 -32.438,-32.911 -30.56,-31.112 -32.546,-29.037 -34.425,-30.836"/></g><g fill="#282828" stroke="#A6A6A6" stroke-width="0.338"><g fill="#A6A6A6" stroke="#A6A6A6" stroke-width="0.338" stroke-linejoin="round"><polygon points="-39.174,21.592 -41.411,23.319 -43.645,25.043 -45.955,26.827 -47.365,23.939 -48.837,20.923 -50.68,17.148 -52.041,14.361 -53.404,11.568 -55.133,8.027 -55.133,7.627 -53.404,11.168 -52.041,13.961 -50.68,16.748 -48.837,20.523 -47.365,23.539 -45.955,26.427 -43.645,24.643 -41.411,22.919 -39.174,21.192"/></g><polygon points="-39.174,21.192 -41.411,22.919 -43.645,24.643 -45.955,26.427 -47.365,23.539 -48.837,20.523 -50.68,16.748 -52.041,13.961 -53.404,11.168 -55.133,7.627 -51.637,7.061 -50.132,10.373 -46.969,9.604 -43.8,8.833 -42.953,11.095 -42.108,13.353 -40.963,16.41 -40.049,18.853"/><g fill="#A6A6A6" stroke="#A6A6A6" stroke-width="0.338" stroke-linejoin="round"><polygon points="-35.068,-2.269 -37.933,-1.453 -39.075,-5.463 -39.075,-5.863 -37.933,-1.853 -35.068,-2.669"/><polygon points="-43.179,-0.724 -43.49,-3.139 -43.49,-3.539 -43.179,-1.124"/><polygon points="-38.282,-1.354 -43.179,-0.724 -43.179,-1.124 -38.282,-1.754"/><polygon points="-33.637,3.735 -38.409,4.508 -39.033,1.893 -39.033,1.493 -38.409,4.108 -33.637,3.335"/><polygon points="-34.343,0.774 -36.091,1.191 -36.798,-1.776 -36.798,-2.176 -36.091,0.791 -34.343,0.374"/><polygon points="-38.409,4.508 -40.241,4.804 -41.945,5.08 -42.641,1.987 -43.085,0.013 -43.085,-0.387 -42.641,1.587 -41.945,4.68 -40.241,4.404 -38.409,4.108"/></g><polygon points="-39.075,-5.863 -36.192,-7.381 -35.068,-2.669 -37.933,-1.853"/><polygon points="-43.179,-1.124 -43.49,-3.539 -38.593,-4.169 -38.282,-1.754"/><polygon points="-34.343,0.374 -33.637,3.335 -38.409,4.108 -39.033,1.493"/><polygon points="-36.798,-2.176 -35.068,-2.669 -34.343,0.374 -36.091,0.791"/><polygon points="-38.409,4.108 -40.241,4.404 -41.945,4.68 -42.641,1.587 -43.085,-0.387 -41.459,-0.849 -39.71,-1.347 -39.203,0.777"/><g fill="#A6A6A6" stroke="#A6A6A6" stroke-width="0.338" stroke-linejoin="round"><polygon points="-43.574,0.796 -45.802,1.114 -45.802,0.714 -43.574,0.396"/><polygon points="-44.984,5.572 -48.22,6.097 -48.789,2.84 -50.967,3.162 -51.183,1.88 -53.659,2.233 -54.257,-1.458 -54.257,-1.858 -53.659,1.833 -51.183,1.48 -50.967,2.762 -48.789,2.44 -48.22,5.697 -44.984,5.172"/><polygon points="-52.91,6.856 -55.499,7.276 -59.442,-0.802 -59.442,-1.202 -55.499,6.876 -52.91,6.456"/><polygon points="-48.378,-4.415 -48.489,-6.475 -48.489,-6.875 -48.378,-4.815"/><polygon points="-44.488,-4.626 -48.378,-4.415 -48.378,-4.815 -44.488,-5.026"/><polygon points="-44.243,-2.726 -48.259,-2.217 -48.378,-4.415 -48.378,-4.815 -48.259,-2.617 -44.243,-3.126"/><polygon points="-51.539,-6.31 -51.802,-11.169 -51.802,-11.569 -51.539,-6.71"/><polygon points="-44.751,-6.677 -51.539,-6.31 -51.539,-6.71 -44.751,-7.077"/></g><polygon points="-54.257,-1.858 -51.799,-2.169 -49.641,-2.442 -46.456,-2.846 -44.243,-3.126 -43.574,0.396 -45.802,0.714 -45.573,1.964 -44.984,5.172 -48.22,5.697 -48.789,2.44 -50.967,2.762 -51.183,1.48 -53.659,1.833"/><polygon points="-52.91,6.456 -55.499,6.876 -59.442,-1.202 -54.257,-1.858"/><polygon points="-48.378,-4.815 -48.489,-6.875 -44.751,-7.077 -44.488,-5.026"/><polygon points="-44.488,-5.026 -44.243,-3.126 -48.259,-2.617 -48.378,-4.815"/><polygon points="-51.539,-6.71 -51.802,-11.569 -45.097,-9.77 -44.751,-7.077"/></g><g fill="#0D0D0D" stroke="#9E9E9E" stroke-width="0.338"><g fill="#9E9E9E" stroke="#9E9E9E" stroke-width="0.338" stroke-linejoin="round"><polygon points="-14.299,-31.36 -14.795,-33.78 -15.301,-36.249 -15.708,-38.235 -15.708,-38.635 -15.301,-36.649 -14.795,-34.18 -14.299,-31.76"/><polygon points="-7.67,-37.813 -10.338,-37.267 -10.338,-37.667 -7.67,-38.213"/><polygon points="-9.336,-32.378 -11.766,-31.879 -14.299,-31.36 -14.299,-31.76 -11.766,-32.279 -9.336,-32.778"/><polygon points="-16.973,-44.406 -17.456,-46.762 -17.983,-49.337 -18.339,-51.071 -18.339,-51.471 -17.983,-49.737 -17.456,-47.162 -16.973,-44.806"/><polygon points="-6.534,-51.683 -8.798,-51.219 -11.265,-50.714 -11.265,-51.114 -8.798,-51.619 -6.534,-52.083"/><polygon points="-10.737,-48.139 -12.76,-47.725 -15.127,-47.239 -15.127,-47.639 -12.76,-48.125 -10.737,-48.539"/><polygon points="-14.644,-44.883 -16.973,-44.406 -16.973,-44.806 -14.644,-45.283"/><polygon points="-5.089,-54.425 -6.368,-53.947 -7.804,-53.409 -8.377,-54.943 -9.167,-57.051 -9.167,-57.451 -8.377,-55.343 -7.804,-53.809 -6.368,-54.347 -5.089,-54.825"/><polygon points="-1.467,-46.225 -2.969,-45.977 -5.101,-45.625 -5.357,-47.177 -5.592,-48.602 -5.592,-49.002 -5.357,-47.577 -5.101,-46.025 -2.969,-46.377 -1.467,-46.625"/><polygon points="-0.399,-39.76 -2.306,-39.445 -5.119,-38.981 -7.544,-38.581 -7.855,-40.464 -7.855,-40.864 -7.544,-38.981 -5.119,-39.381 -2.306,-39.845 -0.399,-40.16"/><polygon points="-2.616,-41.329 -2.988,-43.581 -5.802,-43.116 -6.134,-45.13 -6.134,-45.53 -5.802,-43.516 -2.988,-43.981 -2.616,-41.729"/><polygon points="0.589,-34.53 -1.817,-33.979 -3.886,-33.506 -4.425,-35.861 -4.992,-38.343 -4.992,-38.743 -4.425,-36.261 -3.886,-33.906 -1.817,-34.379 0.589,-34.93"/></g><polygon points="-14.299,-31.76 -14.795,-34.18 -15.301,-36.649 -15.708,-38.635 -13.175,-39.154 -10.745,-39.652 -8.077,-40.199 -7.67,-38.213 -10.338,-37.667 -9.832,-35.197 -9.336,-32.778 -11.766,-32.279"/><polygon points="-16.973,-44.806 -17.456,-47.162 -17.983,-49.737 -18.339,-51.471 -16.01,-51.948 -13.643,-52.433 -11.621,-52.848 -9.153,-53.353 -6.889,-53.817 -6.534,-52.083 -8.798,-51.619 -11.265,-51.114 -10.737,-48.539 -12.76,-48.125 -15.127,-47.639 -14.644,-45.283"/><polygon points="-9.167,-57.451 -7.731,-57.989 -6.452,-58.467 -5.663,-56.358 -5.089,-54.825 -6.368,-54.347 -7.804,-53.809 -8.377,-55.343"/><polygon points="-1.958,-49.602 -1.723,-48.177 -1.467,-46.625 -2.969,-46.377 -5.101,-46.025 -5.357,-47.577 -5.592,-49.002 -3.46,-49.354"/><polygon points="-1.415,-46.309 -1.082,-44.295 -0.71,-42.043 -0.399,-40.16 -2.306,-39.845 -5.119,-39.381 -7.544,-38.981 -7.855,-40.864 -5.43,-41.264 -2.616,-41.729 -2.988,-43.981 -5.802,-43.516 -6.134,-45.53 -3.321,-45.994"/><polygon points="0.589,-34.93 -1.817,-34.379 -3.886,-33.906 -4.425,-36.261 -4.992,-38.743 -2.923,-39.216 -0.518,-39.767 0.05,-37.284"/><g fill="#9E9E9E" stroke="#9E9E9E" stroke-width="0.338" stroke-linejoin="round"><polygon points="-15.808,-34.636 -18.176,-34.151 -20.458,-33.683 -22.415,-33.282 -22.907,-35.68 -22.907,-36.08 -22.415,-33.682 -20.458,-34.083 -18.176,-34.551 -15.808,-35.036"/><polygon points="-20.95,-36.082 -21.225,-37.424 -21.676,-39.623 -21.676,-40.023 -21.225,-37.824 -20.95,-36.482"/></g><polygon points="-17.025,-40.976 -16.574,-38.777 -16.299,-37.435 -15.808,-35.036 -18.176,-34.551 -20.458,-34.083 -22.415,-33.682 -22.907,-36.08 -20.95,-36.482 -21.225,-37.824 -21.676,-40.023 -19.393,-40.491"/></g><g fill="#0D0D0D" stroke="#9E9E9E" stroke-width="0.338"><g fill="#9E9E9E" stroke="#9E9E9E" stroke-width="0.338" stroke-linejoin="round"><polygon points="0.628,-45.936 0.303,-47.909 0.123,-48.996 0.123,-49.396 0.303,-48.309 0.628,-46.336"/><polygon points="3.413,-48.422 1.151,-48.049 1.151,-48.449 3.413,-48.822"/><polygon points="1.477,-46.076 0.628,-45.936 0.628,-46.336 1.477,-46.476"/><polygon points="-0.033,-49.943 -0.316,-51.659 -0.745,-54.256 -0.745,-54.656 -0.316,-52.059 -0.033,-50.343"/><polygon points="4.401,-50.675 2.894,-50.426 -0.033,-49.943 -0.033,-50.343 2.894,-50.826 4.401,-51.075"/></g><polygon points="0.628,-46.336 0.303,-48.309 0.123,-49.396 0.972,-49.536 3.234,-49.909 3.413,-48.822 1.151,-48.449 1.477,-46.476"/><polygon points="-0.033,-50.343 -0.316,-52.059 -0.745,-54.656 2.182,-55.139 3.689,-55.388 4.118,-52.791 4.401,-51.075 2.894,-50.826"/><g fill="#9E9E9E" stroke="#9E9E9E" stroke-width="0.338" stroke-linejoin="round"><polygon points="8.25,-43.681 8.17,-42.758 8.022,-41.043 7.001,-41.132 4.884,-41.315 4.884,-41.715 7.001,-41.532 8.022,-41.443 8.17,-43.158 8.25,-44.081"/></g><polygon points="4.884,-41.715 5.032,-43.43 5.112,-44.352 7.229,-44.169 8.25,-44.081 8.17,-43.158 8.022,-41.443 7.001,-41.532"/></g><g fill="#0D0D0D" stroke="#9E9E9E" stroke-width="0.338"><g fill="#9E9E9E" stroke="#9E9E9E" stroke-width="0.338" stroke-linejoin="round"><polygon points="38.914,-0.618 38.322,1.352 38.322,0.952 38.914,-1.018"/><polygon points="41.451,2.293 40.711,4.756 39.138,4.283 37.582,3.816 36.02,3.347 36.02,2.947 37.582,3.416 39.138,3.883 40.711,4.356 41.451,1.893"/><polygon points="41.839,-4.745 41.402,-3.291 41.402,-3.691 41.839,-5.145"/><polygon points="43.7,-2.601 43.228,-1.028 42.78,0.461 40.482,-0.23 39.106,-0.643 37.375,-1.164 37.375,-1.564 39.106,-1.043 40.482,-0.63 42.78,0.061 43.228,-1.428 43.7,-3.001"/></g><polygon points="36.02,2.947 36.76,0.483 37.352,-1.487 38.914,-1.018 38.322,0.952 39.878,1.42 41.451,1.893 40.711,4.356 39.138,3.883 37.582,3.416"/><polygon points="37.375,-1.564 37.823,-3.052 38.295,-4.625 38.732,-6.078 40.463,-5.558 41.839,-5.145 41.402,-3.691 43.7,-3.001 43.228,-1.428 42.78,0.061 40.482,-0.63 39.106,-1.043"/><g fill="#9E9E9E" stroke="#9E9E9E" stroke-width="0.338" stroke-linejoin="round"><polygon points="44.247,6.186 44.078,7.117 43.77,8.823 41.652,8.591 39.458,8.35 37.072,8.089 34.664,7.825 34.664,7.425 37.072,7.689 39.458,7.95 41.652,8.191 43.77,8.423 44.078,6.717 44.247,5.786"/></g><polygon points="44.247,5.786 44.078,6.717 43.77,8.423 41.652,8.191 39.458,7.95 37.072,7.689 34.664,7.425 35.205,5.623 35.501,4.639 37.814,4.943 40.105,5.243 42.213,5.519"/><g fill="#9E9E9E" stroke="#9E9E9E" stroke-width="0.338" stroke-linejoin="round"><polygon points="43.208,9.576 43.035,11.155 41.131,10.946 40.89,13.147 39.019,12.942 39.019,12.542 40.89,12.747 41.131,10.546 43.035,10.755 43.208,9.176"/><polygon points="47.711,10.069 47.549,11.553 47.4,12.913 47.187,14.852 44.541,14.562 44.541,14.162 47.187,14.452 47.4,12.513 47.549,11.153 47.711,9.669"/><polygon points="44.902,11.264 43.284,11.086 43.284,10.686 44.902,10.864"/><polygon points="52.276,10.569 52.071,12.443 51.913,13.885 50.177,13.695 49.997,15.347 47.247,15.046 47.247,14.646 49.997,14.947 50.177,13.295 51.913,13.485 52.071,12.043 52.276,10.169"/></g><polygon points="39.433,8.762 41.304,8.967 43.208,9.176 43.035,10.755 41.131,10.546 40.89,12.747 39.019,12.542 39.26,10.341"/><polygon points="43.446,9.202 45.065,9.379 47.711,9.669 47.549,11.153 47.4,12.513 47.187,14.452 44.541,14.162 44.753,12.223 44.902,10.864 43.284,10.686"/><polygon points="47.791,9.678 50.541,9.979 52.276,10.169 52.071,12.043 51.913,13.485 50.177,13.295 49.997,14.947 47.247,14.646 47.428,12.994 47.585,11.552"/></g><g stroke="#333333" stroke-width="0.338" stroke-linecap="butt"><line x1="44.464" y1="-35.331" x2="32.45" y2="-33.713"/><line x1="45.617" y1="-33.97" x2="30.15" y2="-31.887"/><line x1="45.818" y1="-32.481" x2="30.28" y2="-30.388"/><line x1="46.019" y1="-30.991" x2="30.41" y2="-28.889"/><line x1="46.219" y1="-29.502" x2="30.541" y2="-27.39"/><line x1="46.42" y1="-28.013" x2="30.671" y2="-25.891"/><line x1="46.621" y1="-26.523" x2="30.801" y2="-24.392"/><line x1="46.821" y1="-25.034" x2="30.976" y2="-22.899"/><line x1="47.022" y1="-23.544" x2="31.78" y2="-21.491"/><line x1="47.222" y1="-22.055" x2="33.217" y2="-20.168"/><line x1="47.423" y1="-20.566" x2="34.896" y2="-18.878"/><line x1="47.624" y1="-19.076" x2="36.576" y2="-17.588"/><line x1="47.739" y1="-17.575" x2="38.255" y2="-16.298"/><line x1="47.421" y1="-16.016" x2="40.008" y2="-15.017"/><line x1="48.022" y1="-31.098" x2="50.992" y2="-16.371"/><line x1="48.567" y1="-36.942" x2="52.648" y2="-16.705"/><line x1="50.218" y1="-37.296" x2="54.303" y2="-17.039"/><line x1="51.874" y1="-37.63" x2="55.959" y2="-17.372"/><line x1="53.529" y1="-37.964" x2="57.614" y2="-17.706"/><line x1="55.185" y1="-38.297" x2="59.227" y2="-18.252"/><line x1="56.84" y1="-38.631" x2="60.724" y2="-19.371"/><line x1="58.496" y1="-38.965" x2="62.174" y2="-20.725"/><line x1="60.42" y1="-37.969" x2="63.624" y2="-22.079"/><line x1="59.181" y1="-41.332" x2="58.709" y2="-43.672"/><line x1="57.884" y1="-40.962" x2="57.198" y2="-44.361"/><line x1="56.581" y1="-40.619" x2="55.705" y2="-44.965"/><line x1="55.264" y1="-40.354" x2="54.22" y2="-45.527"/><line x1="53.946" y1="-40.088" x2="52.736" y2="-46.088"/><line x1="52.628" y1="-39.822" x2="51.251" y2="-46.65"/><line x1="51.31" y1="-39.556" x2="49.766" y2="-47.211"/><line x1="49.992" y1="-39.291" x2="48.282" y2="-47.773"/><line x1="48.674" y1="-39.025" x2="46.797" y2="-48.334"/><line x1="47.356" y1="-38.759" x2="45.312" y2="-48.895"/><line x1="46.039" y1="-38.493" x2="43.828" y2="-49.457"/><line x1="44.721" y1="-38.228" x2="42.343" y2="-50.018"/><line x1="43.403" y1="-37.962" x2="40.858" y2="-50.58"/><line x1="42.085" y1="-37.696" x2="39.374" y2="-51.141"/><line x1="40.767" y1="-37.43" x2="37.889" y2="-51.703"/><line x1="39.449" y1="-37.165" x2="36.404" y2="-52.264"/><line x1="38.131" y1="-36.899" x2="35.012" y2="-52.368"/><line x1="36.814" y1="-36.633" x2="33.715" y2="-51.998"/><line x1="35.496" y1="-36.367" x2="32.596" y2="-50.746"/><line x1="34.178" y1="-36.102" x2="32.009" y2="-46.857"/><line x1="32.806" y1="-36.102" x2="31.422" y2="-42.969"/><line x1="31.296" y1="-36.791" x2="30.834" y2="-39.08"/><g fill="#777777" stroke="#DDDDDD" stroke-width="0.338"><g fill="#DDDDDD" stroke="#DDDDDD" stroke-width="0.338" stroke-linejoin="round"/></g></g><g fill="#363636" stroke="#AAAAAA" stroke-width="0.338"><g fill="#AAAAAA" stroke="#AAAAAA" stroke-width="0.338" stroke-linejoin="round"><polygon points="45.809,18.202 45.133,20.154 44.572,21.772 42.883,21.187 40.378,20.319 40.378,19.919 42.883,20.787 44.572,21.372 45.133,19.754 45.809,17.802"/><polygon points="41.831,25.425 40.563,24.827 39.116,24.144 39.116,23.744 40.563,24.427 41.831,25.025"/><polygon points="43.411,22.076 42.724,23.531 41.831,25.425 41.831,25.025 42.724,23.131 43.411,21.676"/></g><polygon points="45.809,17.802 45.133,19.754 44.572,21.372 42.883,20.787 40.378,19.919 40.938,18.301 41.615,16.349 44.12,17.216"/><polygon points="41.831,25.025 40.563,24.427 39.116,23.744 40.009,21.85 40.696,20.395 42.143,21.078 43.411,21.676 42.724,23.131"/><g fill="#AAAAAA" stroke="#AAAAAA" stroke-width="0.338" stroke-linejoin="round"><polygon points="46.28,32.189 45.061,33.949 44.075,35.373 42.718,37.332 40.732,35.956 39.121,34.841 37.304,33.582 37.304,33.182 39.121,34.441 40.732,35.556 42.718,36.932 44.075,34.973 45.061,33.549 46.28,31.789"/><polygon points="38.662,31.623 36.903,30.405 36.903,30.005 38.662,31.223"/><polygon points="42.295,37.466 41.287,38.922 40.103,40.631 38.501,39.522 36.05,37.824 36.05,37.424 38.501,39.122 40.103,40.231 41.287,38.522 42.295,37.066"/><polygon points="34.401,41.902 32.949,39.766 32.949,39.366 34.401,41.502"/><polygon points="36.694,40.343 34.401,41.902 34.401,41.502 36.694,39.943"/><polygon points="34.69,34 34.015,35.207 33.255,36.568 31.517,35.597 30.573,35.07 30.573,34.67 31.517,35.197 33.255,36.168 34.015,34.807 34.69,33.6"/></g><polygon points="46.28,31.789 45.061,33.549 44.075,34.973 42.718,36.932 40.732,35.556 39.121,34.441 37.304,33.182 38.662,31.223 36.903,30.005 37.889,28.581 39.648,29.799 40.866,28.039 42.683,29.298 44.294,30.413"/><polygon points="42.295,37.066 41.287,38.522 40.103,40.231 38.501,39.122 36.05,37.424 37.234,35.714 38.242,34.259 40.694,35.957"/><polygon points="34.401,41.502 32.949,39.366 35.242,37.807 36.694,39.943"/><polygon points="30.573,34.67 31.333,33.309 32.007,32.102 32.952,32.629 34.69,33.6 34.015,34.807 33.255,36.168 31.517,35.197"/><g fill="#AAAAAA" stroke="#AAAAAA" stroke-width="0.338" stroke-linejoin="round"><polygon points="43.218,45.577 41.581,47.941 40.955,48.844 39.01,47.498 37.634,46.544 37.634,46.144 39.01,47.098 40.955,48.444 41.581,47.541 43.218,45.177"/><polygon points="47.467,40.723 46.319,42.381 43.874,40.687 42.521,42.64 42.521,42.24 43.874,40.287 46.319,41.981 47.467,40.323"/><polygon points="46.937,45.699 45.973,47.089 44.003,45.724 41.558,44.031 39.88,42.869 39.88,42.469 41.558,43.631 44.003,45.324 45.973,46.689 46.937,45.299"/><polygon points="47.139,50.623 45.792,50.807 44.164,51.029 43.909,49.159 43.711,47.704 43.711,47.304 43.909,48.759 44.164,50.629 45.792,50.407 47.139,50.223"/></g><polygon points="37.634,46.144 38.26,45.241 39.897,42.877 41.273,43.83 43.218,45.177 41.581,47.541 40.955,48.444 39.01,47.098"/><polygon points="39.88,42.469 40.844,41.078 42.196,39.125 43.345,37.467 45.022,38.629 47.467,40.323 46.319,41.981 43.874,40.287 42.521,42.24 44.966,43.934 46.937,45.299 45.973,46.689 44.003,45.324 41.558,43.631"/><polygon points="47.139,50.223 45.792,50.407 44.164,50.629 43.909,48.759 43.711,47.304 45.338,47.082 46.686,46.898 46.884,48.353"/></g><g fill="#363636" stroke="#AAAAAA" stroke-width="0.338"><g fill="#AAAAAA" stroke="#AAAAAA" stroke-width="0.338" stroke-linejoin="round"><polygon points="36.048,57.35 31.578,63.085 29.795,62.26 29.795,61.86 31.578,62.685 36.048,56.95"/><polygon points="24.103,65.988 23.088,68.183 16.764,65.258 16.764,64.858 23.088,67.783 24.103,65.588"/><polygon points="31.304,63.436 30.027,65.075 29.307,65.998 27.679,68.087 26.408,69.718 24.939,69.039 23.278,68.271 23.278,67.871 24.939,68.639 26.408,69.318 27.679,67.687 29.307,65.598 30.027,64.675 31.304,63.036"/><polygon points="19.776,58.744 18.752,60.958 17.717,63.196 16.764,65.258 14.926,64.409 14.926,64.009 16.764,64.858 17.717,62.796 18.752,60.558 19.776,58.344"/><polygon points="15.815,62.317 14.493,61.705 12.628,60.843 12.628,60.443 14.493,61.305 15.815,61.917"/><polygon points="14.923,53.961 14.097,56.222 7.72,52.3 7.72,51.9 14.097,55.822 14.923,53.561"/><polygon points="12.937,49.312 12.14,51.061 11.61,52.226 10.138,51.556 8.416,50.771 8.416,50.371 10.138,51.156 11.61,51.826 12.14,50.661 12.937,48.912"/><polygon points="14.026,46.92 13.465,48.153 12.937,49.312 11.069,48.461 9.743,47.857 9.743,47.457 11.069,48.061 12.937,48.912 13.465,47.753 14.026,46.52"/><polygon points="10.523,59.688 9.933,58.217 9.221,56.443 9.221,56.043 9.933,57.817 10.523,59.288"/><polygon points="13.113,58.649 11.987,59.101 10.523,59.688 10.523,59.288 11.987,58.701 13.113,58.249"/><polygon points="40.095,52.158 38.908,53.68 37.744,55.174 36.33,56.987 34.509,56.145 31.664,54.83 31.664,54.43 34.509,55.745 36.33,56.587 37.744,54.774 38.908,53.28 40.095,51.758"/><polygon points="32.991,52.359 30.754,51.034 30.754,50.634 32.991,51.959"/><polygon points="32.087,40.381 31.079,42.561 29.111,41.522 28.283,43.312 25.513,42.031 23.652,41.171 23.652,40.771 25.513,41.631 28.283,42.912 29.111,41.122 31.079,42.161 32.087,39.981"/><polygon points="19.385,38.9 18.259,41.335 17.301,43.406 16.372,45.414 15.386,47.548 12.628,46.273 10.841,45.446 10.841,45.046 12.628,45.873 15.386,47.148 16.372,45.014 17.301,43.006 18.259,40.935 19.385,38.5"/><polygon points="15.47,40.069 13.663,39.248 13.663,38.848 15.47,39.669"/></g><polygon points="32.767,55.433 36.048,56.95 31.578,62.685 29.795,61.86"/><polygon points="24.103,65.588 23.088,67.783 16.764,64.858 17.778,62.664"/><polygon points="26.534,60.83 29.065,62 31.304,63.036 30.027,64.675 29.307,65.598 27.679,67.687 26.408,69.318 24.939,68.639 23.278,67.871 24.123,66.043 25.206,63.701 25.684,62.667"/><polygon points="19.776,58.344 18.752,60.558 17.717,62.796 16.764,64.858 14.926,64.009 15.815,61.917 14.493,61.305 12.628,60.443 13.477,58.119 15.409,59.013 16.781,59.647 17.736,57.401"/><polygon points="14.923,53.561 14.097,55.822 7.72,51.9 8.33,50.559"/><polygon points="12.937,48.912 12.14,50.661 11.61,51.826 10.138,51.156 8.416,50.371 8.946,49.207 9.743,47.457 11.465,48.241"/><polygon points="9.743,47.457 10.274,46.29 10.841,45.046 12.163,45.658 14.026,46.52 13.465,47.753 12.937,48.912 11.069,48.061"/><polygon points="10.523,59.288 9.933,57.817 9.221,56.043 10.685,55.455 11.81,55.004 12.522,56.778 13.113,58.249 11.987,58.701"/><polygon points="32.891,46.012 35.197,47.851 38.183,50.233 40.095,51.758 38.908,53.28 37.744,54.774 36.33,56.587 34.509,55.745 31.664,54.43 32.991,51.959 30.754,50.634 31.812,48.345"/><polygon points="23.652,40.771 24.593,38.736 25.811,36.102 27.567,37.188 30.182,38.804 32.087,39.981 31.079,42.161 29.111,41.122 28.283,42.912 25.513,41.631"/><polygon points="19.385,38.5 18.259,40.935 17.301,43.006 16.372,45.014 15.386,47.148 12.628,45.873 10.841,45.046 11.81,42.918 13.604,43.742 14.523,41.737 15.47,39.669 13.663,38.848 14.769,36.419 16.584,37.237"/></g><g fill="#363636" stroke="#AAAAAA" stroke-width="0.338"><g fill="#AAAAAA" stroke="#AAAAAA" stroke-width="0.338" stroke-linejoin="round"><polygon points="-9.847,56.955 -10.44,58.887 -10.44,58.487 -9.847,56.555"/><polygon points="-9.152,59.283 -9.744,61.209 -9.744,60.809 -9.152,58.883"/><polygon points="-7.062,62.033 -7.777,64.357 -10.458,63.533 -11.746,63.138 -14.525,62.284 -14.525,61.884 -11.746,62.738 -10.458,63.133 -7.777,63.957 -7.062,61.633"/><polygon points="-3.988,52.898 -4.363,54.12 -4.976,56.113 -5.55,57.981 -7.899,57.259 -9.999,56.613 -12.349,55.891 -12.349,55.491 -9.999,56.213 -7.899,56.859 -5.55,57.581 -4.976,55.713 -4.363,53.72 -3.988,52.498"/><polygon points="1.123,51.364 0.612,52.952 -0.869,52.476 -1.386,54.082 -1.834,55.475 -4.047,54.763 -4.047,54.363 -1.834,55.075 -1.386,53.682 -0.869,52.076 0.612,52.552 1.123,50.964"/><polygon points="4.833,52.344 4.313,53.959 3.876,55.319 3.276,57.185 1.474,56.606 1.474,56.206 3.276,56.785 3.876,54.919 4.313,53.559 4.833,51.944"/><polygon points="2.075,54.74 0.726,54.306 0.726,53.906 2.075,54.34"/><polygon points="8.224,59.356 6.392,60.091 4.556,60.828 2.383,61.7 0.307,62.533 -0.141,61.415 -1.112,58.996 -1.112,58.596 -0.141,61.015 0.307,62.133 2.383,61.3 4.556,60.428 6.392,59.691 8.224,58.956"/><polygon points="9.691,63.557 7.915,64.269 6.143,64.98 3.971,65.852 2.054,66.622 1.405,65.005 0.093,65.532 -0.808,63.286 -0.808,62.886 0.093,65.132 1.405,64.605 2.054,66.222 3.971,65.452 6.143,64.58 7.915,63.869 9.691,63.157"/><polygon points="5.495,63.364 4.593,61.118 4.593,60.718 5.495,62.964"/><polygon points="5.266,70.414 4.371,71.548 2.971,73.323 1.511,72.171 -0.361,70.695 -0.361,70.295 1.511,71.771 2.971,72.923 4.371,71.148 5.266,70.014"/><polygon points="0.574,76.361 -0.638,77.898 -1.713,79.26 -3.83,77.589 -4.871,76.769 -4.871,76.369 -3.83,77.189 -1.713,78.86 -0.638,77.498 0.574,75.961"/></g><polygon points="-14.525,61.884 -13.811,59.559 -13.219,57.633 -12.626,55.701 -9.847,56.555 -10.44,58.487 -9.152,58.883 -9.744,60.809 -7.062,61.633 -7.777,63.957 -10.458,63.133 -11.746,62.738"/><polygon points="-12.349,55.491 -11.776,53.624 -11.163,51.63 -10.787,50.408 -8.437,51.13 -6.337,51.776 -3.988,52.498 -4.363,53.72 -4.976,55.713 -5.55,57.581 -7.899,56.859 -9.999,56.213"/><polygon points="-2.572,49.776 -0.358,50.487 1.123,50.964 0.612,52.552 -0.869,52.076 -1.386,53.682 -1.834,55.075 -4.047,54.363 -3.599,52.971 -3.082,51.364"/><polygon points="1.683,50.931 3.031,51.364 4.833,51.944 4.313,53.559 3.876,54.919 3.276,56.785 1.474,56.206 2.075,54.34 0.726,53.906 1.164,52.547"/><polygon points="6.804,55.419 7.775,57.838 8.224,58.956 6.392,59.691 4.556,60.428 2.383,61.3 0.307,62.133 -0.141,61.015 -1.112,58.596 0.963,57.763 3.136,56.891 4.973,56.154"/><polygon points="8.141,59.295 9.042,61.54 9.691,63.157 7.915,63.869 6.143,64.58 3.971,65.452 2.054,66.222 1.405,64.605 0.093,65.132 -0.808,62.886 0.504,62.36 2.421,61.59 3.322,63.836 5.495,62.964 4.593,60.718 6.365,60.007"/><polygon points="5.266,70.014 4.371,71.148 2.971,72.923 1.511,71.771 -0.361,70.295 1.04,68.52 1.934,67.385 3.806,68.862"/><polygon points="0.574,75.961 -0.638,77.498 -1.713,78.86 -3.83,77.189 -4.871,76.369 -3.796,75.006 -2.756,75.827 -1.543,74.29"/><g fill="#AAAAAA" stroke="#AAAAAA" stroke-width="0.338" stroke-linejoin="round"><polygon points="-11.017,48.076 -11.765,50.511 -12.137,51.722 -13.729,51.232 -15.232,50.771 -16.826,50.281 -16.826,49.881 -15.232,50.371 -13.729,50.832 -12.137,51.322 -11.765,50.111 -11.017,47.676"/><polygon points="-12.161,51.798 -12.77,53.78 -13.019,54.589 -13.676,56.729 -15.171,56.269 -17.322,55.609 -19.155,55.045 -20.913,54.505 -22.783,53.93 -22.783,53.53 -20.913,54.105 -19.155,54.645 -17.322,55.209 -15.171,55.869 -13.676,56.329 -13.019,54.189 -12.77,53.38 -12.161,51.398"/><polygon points="-13.7,56.805 -14.233,58.541 -14.833,60.493 -16.426,60.003 -18.531,59.356 -20.412,58.778 -20.412,58.378 -18.531,58.956 -16.426,59.603 -14.833,60.093 -14.233,58.141 -13.7,56.405"/></g><polygon points="-11.017,47.676 -11.765,50.111 -12.137,51.322 -13.729,50.832 -15.232,50.371 -16.826,49.881 -16.454,48.67 -15.706,46.235 -14.112,46.725 -12.609,47.187"/><polygon points="-12.161,51.398 -12.77,53.38 -13.019,54.189 -13.676,56.329 -15.171,55.869 -17.322,55.209 -19.155,54.645 -20.913,54.105 -22.783,53.53 -22.126,51.391 -20.255,51.966 -20.006,51.156 -18.249,51.696 -16.415,52.259 -15.807,50.278 -13.656,50.939"/><polygon points="-13.7,56.405 -14.233,58.141 -14.833,60.093 -16.426,59.603 -18.531,58.956 -20.412,58.378 -19.812,56.426 -19.279,54.691 -17.398,55.269 -15.293,55.916"/></g><g fill="#363636" stroke="#AAAAAA" stroke-width="0.338"><g fill="#AAAAAA" stroke="#AAAAAA" stroke-width="0.338" stroke-linejoin="round"><polygon points="-33.127,59.502 -34.647,57.984 -35.705,56.927 -37.172,55.462 -37.172,55.062 -35.705,56.527 -34.647,57.584 -33.127,59.102"/><polygon points="-30.413,51.628 -32.092,53.31 -34.45,55.67 -34.45,55.27 -32.092,52.91 -30.413,51.228"/><polygon points="-31.872,58.245 -33.127,59.502 -33.127,59.102 -31.872,57.845"/><polygon points="-37.229,55.092 -38.628,53.695 -40.023,52.301 -40.023,51.901 -38.628,53.295 -37.229,54.692"/><polygon points="-31.806,49.662 -33.943,51.802 -35.416,53.276 -37.229,55.092 -37.229,54.692 -35.416,52.876 -33.943,51.402 -31.806,49.262"/><polygon points="-40.394,51.92 -42.214,50.102 -43.746,48.572 -43.746,48.172 -42.214,49.702 -40.394,51.52"/><polygon points="-34.376,45.894 -35.747,47.267 -37.433,48.955 -38.794,50.318 -40.394,51.92 -40.394,51.52 -38.794,49.918 -37.433,48.555 -35.747,46.867 -34.376,45.494"/><polygon points="-44.184,48.133 -45.543,46.776 -47.24,45.08 -47.24,44.68 -45.543,46.376 -44.184,47.733"/><polygon points="-40.633,41.86 -42.34,43.569 -42.34,43.169 -40.633,41.46"/><polygon points="-40.981,44.926 -42.402,46.348 -44.184,48.133 -44.184,47.733 -42.402,45.948 -40.981,44.526"/><polygon points="-37.291,39.997 -38.289,40.982 -39.357,42.038 -40.517,40.864 -41.9,39.464 -41.9,39.064 -40.517,40.464 -39.357,41.638 -38.289,40.582 -37.291,39.597"/><polygon points="-29.817,43.328 -31.472,45.121 -33.039,43.675 -34.069,44.791 -35.186,43.76 -35.186,43.36 -34.069,44.391 -33.039,43.275 -31.472,44.721 -29.817,42.928"/><polygon points="-27.514,45.749 -28.736,47.073 -30.212,48.673 -31.406,47.571 -32.444,46.614 -32.444,46.214 -31.406,47.171 -30.212,48.273 -28.736,46.673 -27.514,45.349"/></g><polygon points="-33.127,59.102 -34.647,57.584 -35.705,56.527 -37.172,55.062 -35.917,53.805 -33.559,51.445 -31.88,49.763 -30.413,51.228 -32.092,52.91 -34.45,55.27 -33.392,56.327 -31.872,57.845"/><polygon points="-37.229,54.692 -38.628,53.295 -40.023,51.901 -38.21,50.085 -36.737,48.611 -34.6,46.471 -33.205,47.865 -31.806,49.262 -33.943,51.402 -35.416,52.876"/><polygon points="-40.394,51.52 -42.214,49.702 -43.746,48.172 -42.146,46.57 -40.785,45.207 -39.099,43.519 -37.567,45.049 -36.196,43.676 -34.376,45.494 -35.747,46.867 -37.433,48.555 -38.794,49.918"/><polygon points="-44.184,47.733 -45.543,46.376 -47.24,44.68 -45.458,42.896 -44.038,41.474 -42.331,39.765 -40.633,41.46 -42.34,43.169 -40.981,44.526 -42.402,45.948"/><polygon points="-41.9,39.064 -40.831,38.009 -39.833,37.023 -38.451,38.422 -37.291,39.597 -38.289,40.582 -39.357,41.638 -40.517,40.464"/><polygon points="-32.501,40.451 -31.384,41.482 -29.817,42.928 -31.472,44.721 -33.039,43.275 -34.069,44.391 -35.186,43.36 -34.156,42.245"/><polygon points="-29.746,43.29 -28.708,44.248 -27.514,45.349 -28.736,46.673 -30.212,48.273 -31.406,47.171 -32.444,46.214 -30.968,44.614"/><g fill="#AAAAAA" stroke="#AAAAAA" stroke-width="0.338" stroke-linejoin="round"><polygon points="-66.923,58.352 -68.108,57.854 -69.473,57.281 -69.473,56.881 -68.108,57.454 -66.923,57.952"/><polygon points="-65.491,54.943 -66.467,57.268 -66.923,58.352 -66.923,57.952 -66.467,56.868 -65.491,54.543"/><polygon points="-70.137,57.002 -71.739,56.33 -73.966,55.394 -73.966,54.994 -71.739,55.93 -70.137,56.602"/><polygon points="-67.883,51.635 -68.432,52.942 -69.323,55.063 -70.137,57.002 -70.137,56.602 -69.323,54.663 -68.432,52.542 -67.883,51.235"/></g><polygon points="-66.923,57.952 -68.108,57.454 -69.473,56.881 -69.018,55.797 -68.041,53.472 -66.676,54.045 -65.491,54.543 -66.467,56.868"/><polygon points="-70.137,56.602 -71.739,55.93 -73.966,54.994 -73.151,53.055 -72.261,50.934 -71.712,49.627 -69.485,50.562 -67.883,51.235 -68.432,52.542 -69.323,54.663"/><g fill="#AAAAAA" stroke="#AAAAAA" stroke-width="0.338" stroke-linejoin="round"><polygon points="-46.598,37.156 -47.92,38.15 -49.148,36.516 -50.33,34.944 -51.431,35.772 -52.401,34.482 -52.401,34.082 -51.431,35.372 -50.33,34.544 -49.148,36.116 -47.92,37.75 -46.598,36.756"/><polygon points="-41.869,34.924 -44.179,36.662 -45.716,37.817 -46.869,36.285 -48.617,33.96 -49.869,32.294 -49.869,31.894 -48.617,33.56 -46.869,35.885 -45.716,37.417 -44.179,36.262 -41.869,34.524"/></g><polygon points="-52.401,34.082 -51.3,33.254 -49.978,32.26 -49.008,33.55 -47.826,35.122 -46.598,36.756 -47.92,37.75 -49.148,36.116 -50.33,34.544 -51.431,35.372"/><polygon points="-49.869,31.894 -48.332,30.738 -46.021,29.001 -44.769,30.667 -43.021,32.992 -41.869,34.524 -44.179,36.262 -45.716,37.417 -46.869,35.885 -48.617,33.56"/><g fill="#AAAAAA" stroke="#AAAAAA" stroke-width="0.338" stroke-linejoin="round"><polygon points="-46.703,42.746 -48.719,44.737 -50.808,46.801 -52.312,44.8 -54.008,42.543 -55.806,40.15 -57.441,37.975 -57.441,37.575 -55.806,39.75 -54.008,42.143 -52.312,44.4 -50.808,46.401 -48.719,44.337 -46.703,42.346"/></g><polygon points="-46.703,42.346 -48.719,44.337 -50.808,46.401 -52.312,44.4 -54.008,42.143 -55.806,39.75 -57.441,37.575 -55.892,36.41 -54.125,38.364 -52.502,37.027 -50.415,38.941 -48.448,40.746"/><g fill="#AAAAAA" stroke="#AAAAAA" stroke-width="0.338" stroke-linejoin="round"><polygon points="-51.699,47.359 -52.966,48.61 -54.993,50.614 -56.145,49.448 -57.445,48.131 -59.009,46.548 -59.009,46.148 -57.445,47.731 -56.145,49.048 -54.993,50.214 -52.966,48.21 -51.699,46.959"/><polygon points="-55.37,50.977 -56.557,52.149 -58.114,53.688 -59.34,54.899 -61.134,53.082 -62.969,51.224 -62.969,50.824 -61.134,52.682 -59.34,54.499 -58.114,53.288 -56.557,51.749 -55.37,50.577"/><polygon points="-61.743,50.013 -63.199,48.54 -63.199,48.14 -61.743,49.613"/><polygon points="-61.642,47.001 -63.223,45.401 -63.223,45.001 -61.642,46.601"/><polygon points="-56.938,42.352 -58.761,43.722 -59.692,44.422 -60.696,43.086 -61.832,41.576 -61.832,41.176 -60.696,42.686 -59.692,44.022 -58.761,43.322 -56.938,41.952"/></g><polygon points="-51.699,46.959 -52.966,48.21 -54.993,50.214 -56.145,49.048 -57.445,47.731 -59.009,46.148 -56.981,44.145 -55.715,42.894 -54.151,44.477 -52.85,45.793"/><polygon points="-55.37,50.577 -56.557,51.749 -58.114,53.288 -59.34,54.499 -61.134,52.682 -62.969,50.824 -61.743,49.613 -63.199,48.14 -61.642,46.601 -63.223,45.001 -62.036,43.829 -60.455,45.429 -59,46.903 -57.165,48.761"/><polygon points="-61.832,41.176 -60.901,40.476 -59.079,39.106 -57.943,40.616 -56.938,41.952 -58.761,43.322 -59.692,44.022 -60.696,42.686"/></g><g fill="#282828" stroke="#A6A6A6" stroke-width="0.338"><g fill="#A6A6A6" stroke="#A6A6A6" stroke-width="0.338" stroke-linejoin="round"><polygon points="-65.744,41.712 -67.152,40.589 -70.009,38.308 -70.009,37.908 -67.152,40.189 -65.744,41.312"/><polygon points="-60.696,35.388 -62.614,37.79 -64.021,36.667 -65.297,38.265 -65.297,37.865 -64.021,36.267 -62.614,37.39 -60.696,34.988"/><polygon points="-63.89,39.389 -65.744,41.712 -65.744,41.312 -63.89,38.989"/><polygon points="-64.023,5.407 -65.471,5.77 -67.716,6.333 -68.414,3.55 -68.848,1.819 -68.848,1.419 -68.414,3.15 -67.716,5.933 -65.471,5.37 -64.023,5.007"/><polygon points="-60.179,1.78 -62.654,2.4 -62.654,2 -60.179,1.38"/><polygon points="-58.566,8.215 -61.041,8.835 -62.728,9.258 -63.552,5.969 -64.341,2.823 -64.844,0.815 -64.844,0.415 -64.341,2.423 -63.552,5.569 -62.728,8.858 -61.041,8.435 -58.566,7.815"/><polygon points="-54.284,11.612 -56.225,12.56 -58.929,13.879 -60.531,14.662 -61.366,12.951 -62.661,10.297 -62.661,9.897 -61.366,12.551 -60.531,14.262 -58.929,13.479 -56.225,12.16 -54.284,11.212"/><polygon points="-57.06,10.849 -58.356,8.195 -58.356,7.795 -57.06,10.449"/><polygon points="-51.565,17.182 -54.481,18.606 -55.304,16.922 -57.196,17.846 -57.196,17.446 -55.304,16.522 -54.481,18.206 -51.565,16.782"/><polygon points="-56.374,19.53 -58.941,20.783 -59.763,19.099 -62.465,20.418 -63.598,18.099 -63.598,17.699 -62.465,20.018 -59.763,18.699 -58.941,20.383 -56.374,19.13"/><polygon points="-60.895,16.78 -61.625,15.285 -61.625,14.885 -60.895,16.38"/><polygon points="-56.436,14.602 -57.165,13.108 -57.165,12.708 -56.436,14.202"/><polygon points="-47.745,25.005 -50.193,26.2 -51.166,24.208 -53.733,25.462 -54.515,23.861 -54.515,23.461 -53.733,25.062 -51.166,23.808 -50.193,25.8 -47.745,24.605"/><polygon points="-50.637,30.344 -52.59,31.812 -54.254,33.064 -56.057,30.665 -57.695,28.487 -57.695,28.087 -56.057,30.265 -54.254,32.664 -52.59,31.412 -50.637,29.944"/><polygon points="-54.318,33.112 -55.559,34.045 -58.153,35.995 -60.071,33.445 -61.069,32.117 -62.45,30.28 -64.534,27.508 -64.534,27.108 -62.45,29.88 -61.069,31.717 -60.071,33.045 -58.153,35.595 -55.559,33.645 -54.318,32.712"/></g><polygon points="-65.744,41.312 -67.152,40.189 -70.009,37.908 -68.155,35.584 -66.879,33.986 -64.961,31.583 -62.104,33.864 -60.696,34.988 -62.614,37.39 -64.021,36.267 -65.297,37.865 -63.89,38.989"/><polygon points="-68.848,1.419 -66.603,0.856 -65.154,0.493 -64.72,2.224 -64.023,5.007 -65.471,5.37 -67.716,5.933 -68.414,3.15"/><polygon points="-64.844,0.415 -63.157,-0.007 -60.682,-0.628 -60.179,1.38 -62.654,2 -61.865,5.146 -59.39,4.526 -58.566,7.815 -61.041,8.435 -62.728,8.858 -63.552,5.569 -64.341,2.423"/><polygon points="-56.414,6.847 -55.119,9.501 -54.284,11.212 -56.225,12.16 -58.929,13.479 -60.531,14.262 -61.366,12.551 -62.661,9.897 -61.059,9.115 -59.764,11.769 -57.06,10.449 -58.356,7.795"/><polygon points="-54.249,11.284 -53.519,12.778 -52.387,15.098 -51.565,16.782 -54.481,18.206 -55.304,16.522 -57.196,17.446 -56.374,19.13 -58.941,20.383 -59.763,18.699 -62.465,20.018 -63.598,17.699 -60.895,16.38 -61.625,14.885 -59.058,13.632 -58.328,15.126 -56.436,14.202 -57.165,12.708"/><polygon points="-49.499,21.013 -48.718,22.613 -47.745,24.605 -50.193,25.8 -51.166,23.808 -53.733,25.062 -54.515,23.461 -51.947,22.208"/><polygon points="-50.637,29.944 -52.59,31.412 -54.254,32.664 -56.057,30.265 -57.695,28.087 -56.031,26.836 -54.078,25.368 -52.44,27.546"/><polygon points="-54.318,32.712 -55.559,33.645 -58.153,35.595 -60.071,33.045 -61.069,31.717 -62.45,29.88 -64.534,27.108 -61.94,25.158 -60.699,24.225 -58.615,26.997 -57.233,28.834 -56.235,30.161"/></g><g fill="#282828" stroke="#A6A6A6" stroke-width="0.338"><g fill="#A6A6A6" stroke="#A6A6A6" stroke-width="0.338" stroke-linejoin="round"><polygon points="-52.413,-11.968 -55.243,-11.656 -57.838,-11.37 -60.403,-11.088 -60.648,-13.311 -60.648,-13.711 -60.403,-11.488 -57.838,-11.77 -55.243,-12.056 -52.413,-12.368"/><polygon points="-58.083,-13.594 -58.315,-15.704 -58.315,-16.104 -58.083,-13.994"/><polygon points="-63.096,-0.468 -65.581,0.155 -67.495,0.635 -67.921,-1.064 -68.633,-3.906 -68.633,-4.306 -67.921,-1.464 -67.495,0.235 -65.581,-0.245 -63.096,-0.868"/></g><polygon points="-52.89,-16.702 -52.658,-14.592 -52.413,-12.368 -55.243,-12.056 -57.838,-11.77 -60.403,-11.488 -60.648,-13.711 -58.083,-13.994 -58.315,-16.104 -55.721,-16.39"/><polygon points="-63.096,-0.868 -65.581,-0.245 -67.495,0.235 -67.921,-1.464 -68.633,-4.306 -66.719,-4.786 -66.006,-1.944 -63.522,-2.566"/></g><g stroke="#333333" stroke-width="0.338" stroke-linecap="butt"><line x1="59.918" y1="-1.17" x2="58.285" y2="5.742"/><line x1="61.75" y1="-1.912" x2="57.973" y2="14.08"/><line x1="63.337" y1="-1.614" x2="59.318" y2="15.404"/><line x1="64.907" y1="-1.243" x2="60.792" y2="16.179"/><line x1="66.476" y1="-0.873" x2="62.361" y2="16.55"/><line x1="68.046" y1="-0.502" x2="63.931" y2="16.921"/><line x1="69.615" y1="-0.131" x2="65.5" y2="17.291"/><line x1="71.185" y1="0.239" x2="67.07" y2="17.662"/><line x1="72.754" y1="0.61" x2="68.639" y2="18.033"/><line x1="74.324" y1="0.981" x2="70.209" y2="18.403"/><line x1="75.893" y1="1.351" x2="71.779" y2="18.774"/><line x1="77.463" y1="1.722" x2="73.348" y2="19.145"/><line x1="79.033" y1="2.093" x2="74.918" y2="19.516"/><line x1="80.602" y1="2.464" x2="76.487" y2="19.886"/><line x1="82.172" y1="2.834" x2="78.057" y2="20.257"/><line x1="83.716" y1="3.31" x2="79.626" y2="20.628"/><line x1="85.207" y1="4.014" x2="81.206" y2="20.957"/><line x1="84.069" y1="15.85" x2="82.954" y2="20.569"/><line x1="60.569" y1="-5.068" x2="85.276" y2="0.767"/><line x1="59.656" y1="-6.775" x2="87" y2="-0.317"/><line x1="59.815" y1="-8.229" x2="87.376" y2="-1.719"/><line x1="59.974" y1="-9.682" x2="87.753" y2="-3.121"/><line x1="60.134" y1="-11.136" x2="88.129" y2="-4.524"/><line x1="60.293" y1="-12.589" x2="88.505" y2="-5.926"/><line x1="60.452" y1="-14.043" x2="88.882" y2="-7.328"/><line x1="60.625" y1="-15.493" x2="89.258" y2="-8.73"/><line x1="61.143" y1="-16.862" x2="89.634" y2="-10.133"/><line x1="62.277" y1="-18.085" x2="88.929" y2="-11.79"/><line x1="63.552" y1="-19.275" x2="84.486" y2="-14.331"/><line x1="64.826" y1="-20.465" x2="73.624" y2="-18.387"/><g fill="#777777" stroke="#DDDDDD" stroke-width="0.338"><g fill="#DDDDDD" stroke="#DDDDDD" stroke-width="0.338" stroke-linejoin="round"/></g></g><g stroke="#333333" stroke-width="0.338" stroke-linecap="butt"><line x1="54.699" y1="40.003" x2="53.367" y2="49.434"/><line x1="56.56" y1="39.867" x2="55.129" y2="49.992"/><line x1="58.345" y1="40.265" x2="56.952" y2="50.121"/><line x1="60.129" y1="40.664" x2="58.775" y2="50.251"/><line x1="61.914" y1="41.063" x2="60.598" y2="50.38"/><line x1="63.699" y1="41.462" x2="62.421" y2="50.509"/><line x1="65.484" y1="41.861" x2="64.244" y2="50.638"/><line x1="67.269" y1="42.26" x2="66.067" y2="50.767"/><line x1="69.054" y1="42.659" x2="67.988" y2="50.207"/><line x1="70.791" y1="43.394" x2="70.385" y2="46.269"/><line x1="81.181" y1="23.842" x2="58.486" y2="18.482"/><line x1="81.997" y1="25.618" x2="56.656" y2="19.633"/><line x1="81.21" y1="27.016" x2="56.44" y2="21.166"/><line x1="80.424" y1="28.414" x2="56.223" y2="22.699"/><line x1="79.638" y1="29.812" x2="56.007" y2="24.231"/><line x1="78.852" y1="31.21" x2="55.79" y2="25.764"/><line x1="78.066" y1="32.609" x2="55.574" y2="27.296"/><line x1="77.28" y1="34.007" x2="55.357" y2="28.829"/><line x1="76.494" y1="35.405" x2="55.141" y2="30.362"/><line x1="75.708" y1="36.803" x2="54.924" y2="31.894"/><line x1="74.922" y1="38.201" x2="54.708" y2="33.427"/><line x1="74.136" y1="39.599" x2="54.491" y2="34.959"/><line x1="72.018" y1="40.683" x2="55.428" y2="36.764"/><g fill="#777777" stroke="#DDDDDD" stroke-width="0.338"><g fill="#DDDDDD" stroke="#DDDDDD" stroke-width="0.338" stroke-linejoin="round"><polygon points="70.224,42.92 69.96,44.102 69.719,45.178 68.203,44.839 68.203,44.599 69.719,44.938 69.96,43.862 70.224,42.68"/><polygon points="68.444,43.763 67.208,43.487 65.444,43.093 65.444,42.853 67.208,43.247 68.444,43.523"/></g><polygon points="65.708,41.671 67.472,42.065 68.708,42.342 70.224,42.68 69.96,43.862 69.719,44.938 68.203,44.599 68.444,43.523 67.208,43.247 65.444,42.853"/></g></g><g fill="#363636" stroke="#AAAAAA" stroke-width="0.338"><g fill="#AAAAAA" stroke="#AAAAAA" stroke-width="0.338" stroke-linejoin="round"><polygon points="31.11,86.269 28.948,85.835 27.087,85.461 25.542,85.151 25.542,84.751 27.087,85.061 28.948,85.435 31.11,85.869"/><polygon points="28.559,78.138 28.194,79.952 28.194,79.552 28.559,77.738"/><polygon points="32.217,80.761 31.922,82.226 31.455,84.549 31.11,86.269 31.11,85.869 31.455,84.149 31.922,81.826 32.217,80.361"/><polygon points="25.272,84.846 23.58,84.506 21.882,84.165 19.946,83.776 19.946,83.376 21.882,83.765 23.58,84.106 25.272,84.446"/><polygon points="27.029,76.102 26.611,78.182 26.064,80.905 25.794,82.247 25.272,84.846 25.272,84.446 25.794,81.847 26.064,80.505 26.611,77.782 27.029,75.702"/><polygon points="20.654,72.251 20.627,73.736 20.593,75.633 20.564,77.261 18.299,77.22 18.299,76.82 20.564,76.861 20.593,75.233 20.627,73.336 20.654,71.851"/><polygon points="18.328,75.592 16.781,75.564 16.752,77.192 14.891,77.159 14.891,76.759 16.752,76.792 16.781,75.164 18.328,75.192"/><polygon points="18.899,69.106 18.857,71.429 15.226,71.363 15.226,70.963 18.857,71.029 18.899,68.706"/></g><polygon points="31.11,85.869 28.948,85.435 27.087,85.061 25.542,84.751 25.888,83.031 26.355,80.707 26.649,79.242 27.014,77.427 28.559,77.738 28.194,79.552 30.055,79.926 32.217,80.361 31.922,81.826 31.455,84.149"/><polygon points="25.272,84.446 23.58,84.106 21.882,83.765 19.946,83.376 20.469,80.776 20.738,79.435 21.285,76.712 23.221,77.101 23.639,75.021 25.337,75.362 27.029,75.702 26.611,77.782 26.064,80.505 25.794,81.847"/><polygon points="14.891,76.759 14.921,75.131 14.955,73.234 14.982,71.748 16.842,71.782 18.39,71.81 20.654,71.851 20.627,73.336 20.593,75.233 20.564,76.861 18.299,76.82 18.328,75.192 16.781,75.164 16.752,76.792"/><polygon points="15.226,70.963 15.268,68.64 18.899,68.706 18.857,71.029"/><g fill="#AAAAAA" stroke="#AAAAAA" stroke-width="0.338" stroke-linejoin="round"><polygon points="3.591,75.407 2.689,76.55 2.689,76.15 3.591,75.007"/><polygon points="4.632,78.082 3.573,79.425 1.63,77.892 0.879,77.299 0.879,76.899 1.63,77.492 3.573,79.025 4.632,77.682"/></g><polygon points="0.879,76.899 1.938,75.557 2.84,74.414 3.591,75.007 2.689,76.15 4.632,77.682 3.573,79.025 1.63,77.492"/><g fill="#AAAAAA" stroke="#AAAAAA" stroke-width="0.338" stroke-linejoin="round"><polygon points="13.171,72.181 11.581,72.001 10.071,71.83 10.071,71.43 11.581,71.601 13.171,71.781"/><polygon points="13.602,68.38 13.441,69.796 13.171,72.181 13.171,71.781 13.441,69.396 13.602,67.98"/></g><polygon points="13.171,71.781 11.581,71.601 10.071,71.43 10.342,69.045 10.502,67.629 12.012,67.8 13.602,67.98 13.441,69.396"/></g><g stroke="#333333" stroke-width="0.338" stroke-linecap="butt"><line x1="43.45" y1="-51.738" x2="47.047" y2="-51.319"/><line x1="37.454" y1="-54.005" x2="48.224" y2="-52.75"/><line x1="34.378" y1="-55.933" x2="48.405" y2="-54.298"/><line x1="33.684" y1="-57.582" x2="48.585" y2="-55.845"/><line x1="33.715" y1="-59.147" x2="48.766" y2="-57.393"/><line x1="33.895" y1="-60.695" x2="48.946" y2="-58.94"/><line x1="34.076" y1="-62.243" x2="49.126" y2="-60.488"/><line x1="34.256" y1="-63.79" x2="49.307" y2="-62.036"/><line x1="34.436" y1="-65.338" x2="49.487" y2="-63.583"/><line x1="34.617" y1="-66.885" x2="49.668" y2="-65.131"/><line x1="34.797" y1="-68.433" x2="49.848" y2="-66.679"/><line x1="34.978" y1="-69.981" x2="50.028" y2="-68.226"/><line x1="35.158" y1="-71.528" x2="50.209" y2="-69.774"/><line x1="35.338" y1="-73.076" x2="50.389" y2="-71.321"/><line x1="35.519" y1="-74.624" x2="50.57" y2="-72.869"/><line x1="35.699" y1="-76.171" x2="50.556" y2="-74.439"/><line x1="36.896" y1="-77.6" x2="49.862" y2="-76.089"/><line x1="63.297" y1="-74.641" x2="53.243" y2="-75.788"/><line x1="64.873" y1="-73.06" x2="52.766" y2="-74.441"/><line x1="65.988" y1="-71.532" x2="52.605" y2="-73.058"/><line x1="63.908" y1="-70.367" x2="52.444" y2="-71.675"/><line x1="60.872" y1="-69.312" x2="52.283" y2="-70.292"/><line x1="57.836" y1="-68.257" x2="52.121" y2="-68.909"/><line x1="54.801" y1="-67.202" x2="51.96" y2="-67.526"/><line x1="75.937" y1="-60.909" x2="68.827" y2="-68.874"/><line x1="75.404" y1="-59.34" x2="66.654" y2="-69.142"/><line x1="74.352" y1="-58.352" x2="65.136" y2="-68.677"/><line x1="73.276" y1="-57.392" x2="63.66" y2="-68.164"/><line x1="72.2" y1="-56.431" x2="62.184" y2="-67.651"/><line x1="71.124" y1="-55.47" x2="60.708" y2="-67.138"/><line x1="70.048" y1="-54.51" x2="59.233" y2="-66.625"/><line x1="68.972" y1="-53.549" x2="57.757" y2="-66.112"/><line x1="67.895" y1="-52.589" x2="56.281" y2="-65.599"/><line x1="66.819" y1="-51.628" x2="54.805" y2="-65.087"/><line x1="65.743" y1="-50.667" x2="53.33" y2="-64.574"/><line x1="64.667" y1="-49.707" x2="52.318" y2="-63.541"/><line x1="63.591" y1="-48.746" x2="51.367" y2="-62.44"/><line x1="62.515" y1="-47.786" x2="51.144" y2="-60.524"/><line x1="61.369" y1="-46.903" x2="50.921" y2="-58.608"/><line x1="59.964" y1="-46.311" x2="50.697" y2="-56.692"/><line x1="58.147" y1="-46.18" x2="50.474" y2="-54.776"/><line x1="55.228" y1="-47.284" x2="50.251" y2="-52.86"/><line x1="52.309" y1="-48.388" x2="50.027" y2="-50.944"/><g fill="#777777" stroke="#DDDDDD" stroke-width="0.338"><g fill="#DDDDDD" stroke="#DDDDDD" stroke-width="0.338" stroke-linejoin="round"/></g></g><g stroke="#333333" stroke-width="0.338" stroke-linecap="butt"><line x1="79.179" y1="-57.411" x2="75.585" y2="-56.772"/><line x1="79.851" y1="-56.134" x2="73.633" y2="-55.03"/><line x1="80.523" y1="-54.858" x2="71.681" y2="-53.287"/><line x1="81.194" y1="-53.581" x2="69.729" y2="-51.545"/><line x1="81.866" y1="-52.305" x2="67.777" y2="-49.802"/><line x1="82.538" y1="-51.029" x2="65.825" y2="-48.06"/><line x1="83.209" y1="-49.752" x2="63.873" y2="-46.317"/><line x1="83.752" y1="-48.453" x2="62.641" y2="-44.703"/><line x1="84.173" y1="-47.132" x2="62.018" y2="-43.196"/><line x1="84.517" y1="-45.797" x2="61.827" y2="-41.767"/><line x1="84.757" y1="-44.444" x2="62.154" y2="-40.429"/><line x1="84.998" y1="-43.091" x2="62.482" y2="-39.092"/><line x1="85.238" y1="-41.738" x2="62.81" y2="-37.754"/><line x1="85.478" y1="-40.385" x2="63.137" y2="-36.416"/><line x1="85.719" y1="-39.032" x2="63.465" y2="-35.079"/><line x1="85.959" y1="-37.679" x2="63.792" y2="-33.741"/><line x1="86.199" y1="-36.326" x2="64.12" y2="-32.404"/><line x1="86.44" y1="-34.973" x2="64.447" y2="-31.066"/><line x1="86.68" y1="-33.62" x2="64.775" y2="-29.729"/><line x1="85.64" y1="-32.039" x2="66.385" y2="-28.619"/><line x1="86.342" y1="-28.714" x2="65.912" y2="-25.084"/><line x1="87.763" y1="-27.523" x2="66.25" y2="-23.702"/><line x1="88.011" y1="-26.125" x2="68.189" y2="-22.604"/><line x1="88.26" y1="-24.727" x2="70.712" y2="-21.61"/><line x1="88.508" y1="-23.328" x2="73.33" y2="-20.632"/><line x1="88.757" y1="-21.93" x2="75.947" y2="-19.654"/><line x1="89.005" y1="-20.531" x2="78.565" y2="-18.677"/><line x1="89.253" y1="-19.133" x2="81.182" y2="-17.699"/><line x1="89.502" y1="-17.735" x2="83.8" y2="-16.722"/><line x1="89.75" y1="-16.336" x2="86.417" y2="-15.744"/><g fill="#777777" stroke="#DDDDDD" stroke-width="0.338"><g fill="#DDDDDD" stroke="#DDDDDD" stroke-width="0.338" stroke-linejoin="round"/></g></g><g fill="#363636" stroke="#AAAAAA" stroke-width="0.338"><g fill="#AAAAAA" stroke="#AAAAAA" stroke-width="0.338" stroke-linejoin="round"><polygon points="43.169,58.137 40.961,56.838 40.961,56.438 43.169,57.737"/><polygon points="44.986,55.049 43.169,58.137 43.169,57.737 44.986,54.649"/></g><polygon points="43.169,57.737 40.961,56.438 42.777,53.35 44.986,54.649"/><g fill="#AAAAAA" stroke="#AAAAAA" stroke-width="0.338" stroke-linejoin="round"><polygon points="42.153,58.49 40.979,60.485 39.756,62.565 38.322,65.003 36.778,64.095 36.778,63.695 38.322,64.603 39.756,62.165 40.979,60.085 42.153,58.09"/><polygon points="39.436,59.577 36.881,58.074 36.881,57.674 39.436,59.177"/><polygon points="45.905,60.698 44.441,63.188 42.973,65.683 40.532,64.247 39.289,63.516 39.289,63.116 40.532,63.847 42.973,65.283 44.441,62.788 45.905,60.298"/><polygon points="49.797,62.987 48.506,65.182 46.939,67.847 45.199,66.823 43.659,69.441 41.645,68.256 41.645,67.856 43.659,69.041 45.199,66.423 46.939,67.447 48.506,64.782 49.797,62.587"/></g><polygon points="38.054,55.68 40.609,57.182 42.153,58.09 40.979,60.085 39.756,62.165 38.322,64.603 36.778,63.695 38.212,61.257 39.436,59.177 36.881,57.674"/><polygon points="42.222,58.131 43.464,58.862 45.905,60.298 44.441,62.788 42.973,65.283 40.532,63.847 39.289,63.116 40.757,60.621"/><polygon points="46.043,60.379 48.057,61.563 49.797,62.587 48.506,64.782 46.939,67.447 45.199,66.423 43.659,69.041 41.645,67.856 43.185,65.239 44.752,62.574"/><g fill="#AAAAAA" stroke="#AAAAAA" stroke-width="0.338" stroke-linejoin="round"><polygon points="36.59,66.697 35.294,67.78 33.748,65.929 31.982,67.404 30.976,66.2 30.976,65.8 31.982,67.004 33.748,65.529 35.294,67.38 36.59,66.297"/><polygon points="42.556,73.839 40.974,75.161 39.694,73.629 38.29,74.802 37.596,73.972 37.596,73.572 38.29,74.402 39.694,73.229 40.974,74.761 42.556,73.439"/><polygon points="30.885,68.43 29.842,69.768 29.842,69.368 30.885,68.03"/><polygon points="31.529,71.083 30.612,72.26 28.925,70.945 27.403,69.759 27.403,69.359 28.925,70.545 30.612,71.86 31.529,70.683"/></g><polygon points="34.039,63.242 35.044,64.446 36.59,66.297 35.294,67.38 33.748,65.529 31.982,67.004 30.976,65.8 32.742,64.325"/><polygon points="40.583,71.077 41.276,71.907 42.556,73.439 40.974,74.761 39.694,73.229 38.29,74.402 37.596,73.572 39,72.399"/><polygon points="27.403,69.359 28.32,68.182 29.363,66.844 30.885,68.03 29.842,69.368 31.529,70.683 30.612,71.86 28.925,70.545"/><g fill="#AAAAAA" stroke="#AAAAAA" stroke-width="0.338" stroke-linejoin="round"><polygon points="66.364,85.308 66.301,86.633 66.199,88.803 64.095,88.704 62.693,88.638 62.693,88.238 64.095,88.304 66.199,88.403 66.301,86.233 66.364,84.908"/><polygon points="58.996,87.213 57.219,86.463 55.168,85.597 55.168,85.197 57.219,86.063 58.996,86.813"/><polygon points="58.979,82.292 58.041,84.514 58.041,84.114 58.979,81.892"/><polygon points="59.819,85.264 58.996,87.213 58.996,86.813 59.819,84.864"/><polygon points="55.094,85.566 52.77,84.584 50.852,83.775 50.852,83.375 52.77,84.184 55.094,85.166"/><polygon points="57.491,79.889 56.574,82.062 55.879,83.707 55.094,85.566 55.094,85.166 55.879,83.307 56.574,81.662 57.491,79.489"/></g><polygon points="66.364,84.908 66.301,86.233 66.199,88.403 64.095,88.304 62.693,88.238 62.796,86.068 62.858,84.742 64.26,84.808"/><polygon points="58.996,86.813 57.219,86.063 55.168,85.197 55.991,83.248 56.929,81.026 58.979,81.892 58.041,84.114 59.819,84.864"/><polygon points="55.094,85.166 52.77,84.184 50.852,83.375 51.637,81.516 53.555,82.325 54.249,80.681 55.167,78.508 57.491,79.489 56.574,81.662 55.879,83.307"/></g><g fill="#363636" stroke="#AAAAAA" stroke-width="0.338"><g fill="#AAAAAA" stroke="#AAAAAA" stroke-width="0.338" stroke-linejoin="round"><polygon points="-78.56,32.533 -80.32,34.738 -81.414,36.108 -83.814,34.193 -84.853,33.363 -84.853,32.963 -83.814,33.793 -81.414,35.708 -80.32,34.338 -78.56,32.133"/><polygon points="-74.846,35.497 -76.203,37.196 -77.181,38.423 -78.543,37.336 -78.543,36.936 -77.181,38.023 -76.203,36.796 -74.846,35.097"/><polygon points="-77.564,36.11 -78.397,35.445 -79.376,36.671 -80.583,38.182 -82.039,37.02 -82.039,36.62 -80.583,37.782 -79.376,36.271 -78.397,35.045 -77.564,35.71"/><polygon points="-75.095,47.238 -76.76,48.221 -77.96,48.93 -79.705,49.96 -80.486,48.637 -81.413,47.067 -82.57,45.108 -82.57,44.708 -81.413,46.667 -80.486,48.237 -79.705,49.56 -77.96,48.53 -76.76,47.821 -75.095,46.838"/></g><polygon points="-81.999,29.388 -80.96,30.217 -78.56,32.133 -80.32,34.338 -81.414,35.708 -83.814,33.793 -84.853,32.963 -83.759,31.593"/><polygon points="-78.497,32.183 -77.041,33.345 -76.207,34.01 -74.846,35.097 -76.203,36.796 -77.181,38.023 -78.543,36.936 -77.564,35.71 -78.397,35.045 -79.376,36.271 -80.583,37.782 -82.039,36.62 -80.833,35.108 -79.854,33.882"/><polygon points="-75.095,46.838 -76.76,47.821 -77.96,48.53 -79.705,49.56 -80.486,48.237 -81.413,46.667 -82.57,44.708 -80.825,43.678 -79.668,45.637 -78.468,44.928 -76.803,43.945 -75.876,45.515"/></g><g id="labels" style="font: 5px IM Fell Great Primer, serif" fill="#DDDDDD"><g id="THE TEMPLE OF XEXANOTH" transform="translate(6.966 -16.314) scale(0.672 0.672)"><text text-anchor="middle" dominant-baseline="middle" stroke="#000000" stroke-width="1.353">THE TEMPLE OF XEXANOTH</text><text text-anchor="middle" dominant-baseline="middle">THE TEMPLE OF XEXANOTH</text></g><g id="OLD SQUARE" transform="translate(-21.645 17.012) scale(0.537 0.537)"><text text-anchor="middle" dominant-baseline="middle" stroke="#000000" stroke-width="1.353">OLD SQUARE</text><text text-anchor="middle" dominant-baseline="middle">OLD SQUARE</text></g><g id="CETACEAN WARD" transform="translate(-57.382 3.756) scale(0.935 0.935)"><text text-anchor="middle" dominant-baseline="middle" stroke="#000000" stroke-width="1.353">CETACEAN WARD</text><text text-anchor="middle" dominant-baseline="middle">CETACEAN WARD</text></g><g id="LEVIATHAN&#039;S PEACE" transform="translate(5.096 62.692)"><text text-anchor="middle" dominant-baseline="middle" textLength="79.25519429519315" stroke="#000000" stroke-width="1.353">LEVIATHAN'S PEACE</text><text text-anchor="middle" dominant-baseline="middle" textLength="79.25519429519315">LEVIATHAN'S PEACE</text></g></g><g id="markers" pinned="true"/></g><g id="scaleBar" transform="translate(2.115 207.03) scale(0.211 0.211)" stroke="#DDDDDD" stroke-width="1.6" stroke-linejoin="miter" stroke-linecap="butt" style="font: 21px IM Fell Great Primer, serif" fill="none"><path d="M 0,-12 L 0,0 L 236.439,0 L 236.439,-12 M 59.11,0 L 59.11,-6 M 118.219,0 L 118.219,-12 M 177.329,0 L 177.329,-6"/><text text-anchor="middle" fill="#DDDDDD" stroke="none" x="0" y="-18.3">0</text><text text-anchor="middle" fill="#DDDDDD" stroke="none" x="118.219" y="-18.3">100</text><text text-anchor="middle" fill="#DDDDDD" stroke="none" x="236.439" y="-18.3">200m</text></g><g id="compass" transform="translate(239.931 209.145) scale(0.211 0.211) translate(-90 -90) rotate(0 0 0)"><circle cx="0" cy="0" r="32.143" stroke="#DDDDDD" stroke-width="1.6" fill="none"/><polygon points="55.244,55.244 0,9.758 0,0" fill="#DDDDDD"/><polygon points="0,9.758 -55.244,55.244 0,0" fill="#000000"/><polygon points="-55.244,55.244 -9.758,0 0,0" fill="#DDDDDD"/><polygon points="-9.758,0 -55.244,-55.244 0,0" fill="#000000"/><polygon points="-55.244,-55.244 0,-9.758 0,0" fill="#DDDDDD"/><polygon points="0,-9.758 55.244,-55.244 0,0" fill="#000000"/><polygon points="55.244,-55.244 9.758,0 0,0" fill="#DDDDDD"/><polygon points="9.758,0 55.244,55.244 0,0" fill="#000000"/><polygon points="55.244,55.244 0,9.758 -55.244,55.244 -9.758,0 -55.244,-55.244 0,-9.758 55.244,-55.244 9.758,0" fill="none" stroke="#DDDDDD" stroke-width="1.6" stroke-linejoin="round"/><polygon points="80,0 9.326,9.326 0,0" fill="#DDDDDD"/><polygon points="9.326,9.326 0,80 0,0" fill="#000000"/><polygon points="0,80 -9.326,9.326 0,0" fill="#DDDDDD"/><polygon points="-9.326,9.326 -80,0 0,0" fill="#000000"/><polygon points="-80,0 -9.326,-9.326 0,0" fill="#DDDDDD"/><polygon points="-9.326,-9.326 0,-80 0,0" fill="#000000"/><polygon points="0,-80 9.326,-9.326 0,0" fill="#DDDDDD"/><polygon points="9.326,-9.326 80,0 0,0" fill="#000000"/><polygon points="80,0 9.326,9.326 0,80 -9.326,9.326 -80,0 -9.326,-9.326 0,-80 9.326,-9.326" fill="none" stroke="#DDDDDD" stroke-width="1.6" stroke-linejoin="round"/><text text-anchor="middle" dominant-baseline="baseline" style="font: 27px IM Fell Great Primer, serif" fill="#DDDDDD" x="0" y="-85.4" transform="rotate(0 0 0)">N</text></g><g id="cityName" style="font: 11px IM Fell Great Primer, serif" fill="#DDDDDD" transform="translate(119.965 2.115)"><text text-anchor="middle" dominant-baseline="hanging" stroke="#000000" stroke-width="1.353">Yiandh</text><text text-anchor="middle" dominant-baseline="hanging">Yiandh</text></g></svg>